<svg width="22" height="22" viewBox="0 0 22 22" fill="none" xmlns="http://www.w3.org/2000/svg">
<path d="M10.946 5.19436C7.84058 5.19436 5.33569 7.63513 5.33569 10.6611C5.33569 13.6871 7.84058 16.1279 10.946 16.1279C14.0515 16.1279 16.5564 13.6871 16.5564 10.6611C16.5564 7.63513 14.0515 5.19436 10.946 5.19436ZM10.946 14.2152C8.93921 14.2152 7.29858 12.6213 7.29858 10.6611C7.29858 8.70088 8.93433 7.10701 10.946 7.10701C12.9578 7.10701 14.5935 8.70088 14.5935 10.6611C14.5935 12.6213 12.9529 14.2152 10.946 14.2152ZM18.0945 4.97075C18.0945 5.67966 17.5085 6.24584 16.7859 6.24584C16.0584 6.24584 15.4773 5.6749 15.4773 4.97075C15.4773 4.26659 16.0632 3.69565 16.7859 3.69565C17.5085 3.69565 18.0945 4.26659 18.0945 4.97075ZM21.8103 6.26488C21.7273 4.55681 21.3269 3.04382 20.0427 1.79727C18.7634 0.550719 17.2107 0.160577 15.4578 0.0749359C13.6511 -0.0249786 8.23608 -0.0249786 6.42944 0.0749359C4.6814 0.155819 3.12866 0.545961 1.84448 1.79251C0.560303 3.03907 0.164795 4.55206 0.0769043 6.26012C-0.0256348 8.02052 -0.0256348 13.2969 0.0769043 15.0573C0.159912 16.7654 0.560303 18.2784 1.84448 19.525C3.12866 20.7715 4.67651 21.1616 6.42944 21.2473C8.23608 21.3472 13.6511 21.3472 15.4578 21.2473C17.2107 21.1664 18.7634 20.7763 20.0427 19.525C21.322 18.2784 21.7224 16.7654 21.8103 15.0573C21.9128 13.2969 21.9128 8.02527 21.8103 6.26488ZM19.4763 16.9462C19.0955 17.8787 18.3582 18.5972 17.3962 18.973C15.9558 19.5297 12.5378 19.4012 10.946 19.4012C9.35425 19.4012 5.9314 19.525 4.49585 18.973C3.53882 18.6019 2.80151 17.8835 2.41577 16.9462C1.84448 15.5426 1.97632 12.2122 1.97632 10.6611C1.97632 9.11006 1.84937 5.77482 2.41577 4.37602C2.79663 3.44348 3.53394 2.72505 4.49585 2.34918C5.93628 1.79251 9.35425 1.92097 10.946 1.92097C12.5378 1.92097 15.9607 1.79727 17.3962 2.34918C18.3533 2.72029 19.0906 3.43872 19.4763 4.37602C20.0476 5.77958 19.9158 9.11006 19.9158 10.6611C19.9158 12.2122 20.0476 15.5474 19.4763 16.9462Z" fill="white"/>
</svg>
