<svg width="22" height="23" viewBox="0 0 22 23" fill="none" xmlns="http://www.w3.org/2000/svg">
<path d="M20.3125 0.921143H1.55762C0.698242 0.921143 0 1.61103 0 2.45792V20.6995C0 21.5463 0.698242 22.2362 1.55762 22.2362H20.3125C21.1719 22.2362 21.875 21.5463 21.875 20.6995V2.45792C21.875 1.61103 21.1719 0.921143 20.3125 0.921143ZM6.61133 19.1912H3.36914V9.01897H6.61621V19.1912H6.61133ZM4.99023 7.62969C3.9502 7.62969 3.11035 6.80658 3.11035 5.79792C3.11035 4.78926 3.9502 3.96616 4.99023 3.96616C6.02539 3.96616 6.87012 4.78926 6.87012 5.79792C6.87012 6.81134 6.03027 7.62969 4.99023 7.62969ZM18.7646 19.1912H15.5225V14.2431C15.5225 13.0631 15.498 11.5454 13.8379 11.5454C12.1484 11.5454 11.8896 12.83 11.8896 14.1574V19.1912H8.64746V9.01897H11.7578V10.4083H11.8018C12.2363 9.60894 13.2959 8.76681 14.873 8.76681C18.1543 8.76681 18.7646 10.8745 18.7646 13.615V19.1912Z" fill="white"/>
</svg>
