<svg width="25" height="24" viewBox="0 0 25 24" fill="none" xmlns="http://www.w3.org/2000/svg">
<path d="M12.1094 0.322266C5.41992 0.322266 0 5.60346 0 12.1217C0 18.6399 5.41992 23.9211 12.1094 23.9211C18.7988 23.9211 24.2188 18.6399 24.2188 12.1217C24.2188 5.60346 18.7988 0.322266 12.1094 0.322266ZM18.0566 8.40582L16.0693 17.5313C15.9229 18.1784 15.5273 18.3354 14.9756 18.0309L11.9482 15.8566L10.4883 17.2268C10.3271 17.3839 10.1904 17.5171 9.87793 17.5171L10.0928 14.5149L15.7031 9.57625C15.9473 9.3669 15.6494 9.24796 15.3271 9.4573L8.39355 13.7108L5.40527 12.8021C4.75586 12.6022 4.74121 12.1693 5.54199 11.8648L17.2168 7.47804C17.7588 7.28773 18.2324 7.60651 18.0566 8.40582Z" fill="white"/>
</svg>
