<svg width="174" height="46" viewBox="0 0 174 46" fill="none" xmlns="http://www.w3.org/2000/svg">
<g clip-path="url(#clip0_8_172)">
<path d="M36.7229 33.864C36.1088 34.9447 35.3842 35.9616 34.5589 36.8974L34.5811 36.9195L33.8147 37.6883C30.403 41.1197 25.8615 43.011 21.0252 43.011C16.2086 43.011 11.6793 41.1344 8.27253 37.7276C4.86576 34.3209 2.98921 29.7916 2.98921 24.975C2.98921 24.6188 2.99904 24.2578 3.02114 23.8991C3.0236 23.85 3.02606 23.8009 3.03097 23.7493V23.7346C3.03343 23.7027 3.03588 23.6683 3.03834 23.6363V23.6191C3.04325 23.5455 3.05062 23.4693 3.05799 23.3956C3.0629 23.3342 3.06781 23.2704 3.07518 23.204C3.08501 23.1082 3.09483 23.01 3.10466 22.9142C3.11202 22.8577 3.11694 22.7939 3.12676 22.7324C3.13659 22.6538 3.14641 22.563 3.15869 22.4745C3.16606 22.4254 3.17343 22.3763 3.1808 22.3272C3.19062 22.2461 3.20536 22.1552 3.2201 22.0668C3.22747 22.0201 3.23729 21.9661 3.24466 21.9145C3.25203 21.8703 3.2594 21.8261 3.26922 21.7819C3.27905 21.7254 3.29133 21.6591 3.30361 21.5952C3.31343 21.5387 3.32572 21.4773 3.338 21.4159C3.35273 21.3447 3.36501 21.2759 3.38221 21.2022C3.48537 20.711 3.61309 20.2173 3.75801 19.7359L3.76292 19.7236C3.78012 19.6597 3.79976 19.5959 3.82187 19.5345C3.83906 19.4804 3.85626 19.4264 3.87345 19.3699C3.97661 19.0555 4.0896 18.7362 4.20995 18.4292C4.22715 18.3874 4.24434 18.3407 4.26153 18.2965C4.28118 18.2499 4.29838 18.2007 4.32048 18.1491C4.34504 18.0902 4.37206 18.0239 4.39908 17.9576C4.41873 17.9084 4.44329 17.8519 4.46786 17.7979L4.47768 17.7733C4.51207 17.6997 4.544 17.6235 4.57838 17.5498C4.60295 17.4933 4.62751 17.4393 4.65453 17.3853C5.10893 16.4028 5.66158 15.4547 6.29282 14.5655L6.39598 14.4255C6.46721 14.3273 6.53844 14.229 6.61213 14.1357C6.64652 14.0915 6.68336 14.0424 6.7202 13.9957C6.7988 13.8925 6.87986 13.7918 6.95846 13.6936C7.00513 13.6371 7.05179 13.5757 7.10092 13.5192C7.14513 13.4651 7.19425 13.4087 7.24338 13.3497C7.29005 13.2932 7.34163 13.2343 7.39075 13.1778C7.44724 13.1139 7.50374 13.0476 7.56023 12.9837L5.44297 10.864C1.93059 14.7276 0 19.7211 0 24.9725C0 30.5899 2.18603 35.8683 6.15773 39.84C10.1294 43.8117 15.4078 45.9977 21.0252 45.9977C26.6598 45.9977 31.9529 43.797 35.9271 39.8031C37.0618 38.6635 38.0615 37.401 38.904 36.0427L36.7229 33.864Z" fill="#C8A35F"/>
<path d="M9.81255 36.1875C12.8067 39.1816 16.7906 40.8322 21.0252 40.8322C21.1578 40.8322 21.2904 40.8297 21.4231 40.8273C21.4894 40.8273 21.5532 40.8248 21.6196 40.8224H21.6294C21.7276 40.8174 21.8234 40.8125 21.9217 40.8076C22.0003 40.8027 22.0764 40.7978 22.155 40.7929C22.1943 40.7904 22.2287 40.788 22.2606 40.7855L22.3147 40.7806C22.3859 40.7757 22.4571 40.7683 22.5308 40.7609C22.5947 40.756 22.6536 40.7511 22.715 40.7438C22.7592 40.7388 22.7985 40.7339 22.8354 40.7315L22.9164 40.7216C22.968 40.7143 23.0196 40.7094 23.0736 40.702C23.2701 40.6774 23.4617 40.6504 23.6509 40.6185C23.7049 40.6087 23.7565 40.5988 23.8081 40.5915L23.8252 40.589C23.867 40.5816 23.9088 40.5743 23.9481 40.5669L23.9677 40.562C24.0217 40.5522 24.0758 40.5423 24.1298 40.5301C24.2723 40.503 24.4123 40.4736 24.5498 40.4416C24.6432 40.422 24.7365 40.3974 24.8298 40.3753L24.8421 40.3729C24.8667 40.368 24.8888 40.363 24.9133 40.3557C24.9821 40.3385 25.0435 40.3213 25.1074 40.3066C25.1614 40.2918 25.213 40.2795 25.2621 40.2648C25.3063 40.2525 25.3456 40.2427 25.3825 40.2304C25.4193 40.2206 25.4488 40.2132 25.4758 40.2034L25.4979 40.196C25.5372 40.1862 25.5765 40.1739 25.6158 40.1616C25.6821 40.142 25.7386 40.1248 25.7951 40.1051C25.8418 40.0904 25.8811 40.0781 25.9253 40.0658C26.0579 40.0216 26.1906 39.9774 26.3208 39.9307C26.3576 39.9185 26.392 39.9062 26.4264 39.8939L26.4534 39.8841C26.5001 39.8669 26.5418 39.8521 26.5811 39.8374C26.6474 39.8129 26.7039 39.7907 26.7629 39.7686C26.812 39.749 26.8562 39.7342 26.898 39.7171C26.979 39.6851 27.0527 39.6557 27.1264 39.6237L27.3475 39.5304C27.4162 39.5009 27.485 39.4714 27.5489 39.442C27.5882 39.4248 27.6201 39.41 27.6545 39.3953L27.6864 39.3806C27.7404 39.356 27.7945 39.329 27.8485 39.3044C28.1826 39.1448 28.5117 38.9753 28.8286 38.7935C28.8629 38.7739 28.8949 38.7542 28.9293 38.737C29.0029 38.6953 29.0766 38.6511 29.1479 38.6093L29.5114 38.3858C29.671 38.2826 29.8381 38.1746 30.0174 38.0517C30.0665 38.0174 30.1156 37.983 30.1647 37.9486L30.1844 37.9338C30.2212 37.9068 30.2581 37.8823 30.2949 37.8552L30.3047 37.8479C30.3318 37.8282 30.3588 37.8086 30.3858 37.7889L30.3956 37.7816C30.4423 37.7496 30.4865 37.7152 30.5307 37.6809C30.5823 37.644 30.6314 37.6047 30.6781 37.5679C30.7125 37.5408 30.7395 37.5187 30.769 37.4966L30.8033 37.4696C30.8525 37.4303 30.904 37.391 30.9532 37.3493C31.0048 37.3075 31.0563 37.2658 31.1055 37.2265L31.1177 37.2166C31.2135 37.138 31.3069 37.057 31.4027 36.9759C31.4321 36.9514 31.4592 36.9268 31.4886 36.8998L29.3689 34.7776C27.0478 36.7573 24.1028 37.8405 21.0325 37.8405C13.939 37.8405 8.16688 32.0684 8.16688 24.9749C8.16688 21.5165 9.52026 18.2718 11.974 15.8377C13.126 14.6956 14.5064 13.7696 15.9973 13.1334L13.7474 10.8835C12.313 11.6278 11.0038 12.5832 9.85185 13.7278C6.8307 16.7269 5.16785 20.7182 5.16785 24.9724C5.16785 29.2094 6.81842 33.1909 9.81255 36.1875Z" fill="white"/>
<path d="M39.0195 21.0252C39.0195 15.4078 36.8334 10.1294 32.8617 6.15773C28.89 2.18603 23.6092 0 17.9918 0C12.3572 0 7.0641 2.19831 3.0924 6.19457C1.95762 7.3318 0.957945 8.59675 0.113007 9.95504L2.29658 12.1386C2.91064 11.0579 3.63522 10.041 4.46051 9.10519L4.4384 9.08308L5.20474 8.31429C8.61397 4.88296 13.158 2.99167 17.9943 2.99167C22.8109 2.99167 27.3402 4.86822 30.7469 8.27499C34.1537 11.6818 36.0302 16.2086 36.0302 21.0277C36.0302 21.3838 36.0204 21.7473 35.9983 22.1035C35.9959 22.1501 35.9934 22.2017 35.9885 22.2533C35.986 22.2902 35.9836 22.327 35.9811 22.3638V22.381C35.9762 22.4547 35.9688 22.5309 35.9615 22.6045C35.9566 22.666 35.9516 22.7323 35.9443 22.7986C35.9344 22.8919 35.9246 22.9902 35.9148 23.0884C35.9074 23.1449 35.9025 23.2063 35.8927 23.2702C35.8829 23.3488 35.873 23.4372 35.8608 23.5281C35.8534 23.5772 35.846 23.6263 35.8387 23.673C35.8288 23.7565 35.8141 23.8449 35.7994 23.9358C35.792 23.9825 35.7822 24.0365 35.7748 24.0881C35.7674 24.1323 35.7601 24.1765 35.7502 24.2207C35.7404 24.2772 35.7281 24.3435 35.7158 24.4074C35.706 24.4639 35.6937 24.5253 35.679 24.5867C35.6667 24.6555 35.652 24.7267 35.6348 24.8004C35.5316 25.2916 35.4039 25.7878 35.259 26.2668C35.2393 26.3331 35.2197 26.4019 35.1951 26.4706C35.1779 26.5247 35.1607 26.5787 35.1435 26.6352C35.0404 26.952 34.9274 27.2689 34.807 27.5759C34.7899 27.6177 34.7727 27.6619 34.7555 27.7061C34.7358 27.7552 34.7162 27.8044 34.6965 27.8535C34.672 27.9124 34.6449 27.9787 34.6179 28.0451C34.5983 28.0942 34.5737 28.1507 34.5491 28.2047L34.5393 28.2293C34.5049 28.303 34.473 28.3791 34.4386 28.4528C34.4141 28.5093 34.3895 28.5633 34.3625 28.6174C33.9081 29.5998 33.3554 30.5479 32.7242 31.4371L32.6235 31.5771C32.5498 31.6778 32.4786 31.7736 32.4073 31.8669C32.3729 31.9136 32.3361 31.9603 32.2993 32.0069C32.2207 32.1101 32.1396 32.2108 32.061 32.3091C32.0143 32.3655 31.9677 32.427 31.9185 32.4834C31.8768 32.535 31.8326 32.5891 31.7859 32.6431L31.7761 32.6529C31.727 32.7094 31.6778 32.7684 31.6262 32.8249C31.5698 32.8887 31.5133 32.955 31.4568 33.0189L33.574 35.1386C37.0889 31.275 39.0195 26.279 39.0195 21.0252Z" fill="white"/>
<path d="M23.027 32.8692L25.2769 35.1191C26.7113 34.3748 28.0205 33.4194 29.1724 32.2748C32.1911 29.2757 33.8515 25.2819 33.8515 21.0278C33.8515 16.7932 32.201 12.8093 29.2068 9.81513C26.2102 6.81855 22.2287 5.16797 17.9918 5.16797C17.8591 5.16797 17.7265 5.17042 17.5938 5.17288C17.5275 5.17288 17.4637 5.17534 17.3973 5.17779H17.39C17.2917 5.18271 17.1959 5.18762 17.0977 5.19253C17.0191 5.19744 16.9429 5.20236 16.8643 5.20727C16.825 5.20972 16.7907 5.21218 16.7587 5.21464L16.7047 5.21955C16.6359 5.22446 16.5622 5.23183 16.491 5.2392C16.4271 5.24657 16.3682 5.25148 16.3068 5.25885C16.2626 5.26376 16.2233 5.26867 16.1864 5.27113L16.125 5.2785C16.1177 5.2785 16.1103 5.28095 16.1054 5.28095C16.0538 5.28587 16.0022 5.29324 15.9506 5.3006C15.7541 5.32517 15.5626 5.35464 15.3734 5.38412C15.3194 5.39394 15.2678 5.40131 15.2162 5.41113L15.199 5.41359C15.1573 5.42096 15.118 5.42833 15.0787 5.4357L15.0517 5.44061C15.0001 5.45043 14.9485 5.46026 14.8945 5.47008C14.7471 5.4971 14.6071 5.52658 14.4695 5.55851C14.3762 5.57816 14.2829 5.60272 14.1895 5.62482L14.1772 5.62728C14.1527 5.63219 14.1306 5.63711 14.106 5.64447C14.0372 5.66167 13.9758 5.67886 13.912 5.6936C13.8579 5.70834 13.8088 5.72062 13.7572 5.73535C13.713 5.74764 13.6737 5.75746 13.6344 5.76974C13.5976 5.77957 13.5681 5.78939 13.5411 5.79676L13.519 5.80413C13.4797 5.81395 13.4404 5.82623 13.4011 5.83852C13.3348 5.85817 13.2783 5.87536 13.2218 5.89501C13.1751 5.90975 13.1358 5.92203 13.0916 5.93431C12.959 5.97852 12.8263 6.02273 12.6962 6.0694C12.6593 6.08168 12.6274 6.09396 12.593 6.10624L12.5635 6.11607C12.5193 6.13326 12.48 6.14554 12.4407 6.16274C12.3719 6.1873 12.313 6.2094 12.254 6.23397C12.2049 6.25362 12.1632 6.27081 12.1189 6.288C12.0379 6.31993 11.9642 6.34941 11.8905 6.38134L11.6695 6.47468C11.6007 6.50415 11.5344 6.53363 11.468 6.5631C11.4312 6.58029 11.3968 6.59503 11.3624 6.60977L11.3305 6.62451C11.2765 6.64907 11.2224 6.67609 11.1684 6.70065C10.8343 6.8603 10.5052 7.02978 10.1884 7.21154C10.1515 7.23119 10.122 7.24838 10.0877 7.26803C10.0189 7.30733 9.94765 7.34909 9.88133 7.38839L9.6529 7.52839C9.60623 7.55787 9.55711 7.5898 9.50798 7.61927C9.34587 7.72243 9.18131 7.83051 9.00446 7.95332C8.95779 7.98525 8.91358 8.01718 8.86937 8.04665L8.83989 8.0663C8.79814 8.09578 8.76129 8.1228 8.72445 8.14982L8.70971 8.15964C8.68515 8.17929 8.66059 8.19648 8.63357 8.21613L8.62375 8.2235C8.57708 8.25543 8.53287 8.28982 8.48866 8.32421C8.43707 8.36105 8.39041 8.40035 8.34128 8.43719C8.30689 8.46421 8.27742 8.48632 8.2504 8.50842L8.21602 8.53544C8.16689 8.57474 8.11531 8.61404 8.06619 8.6558C8.00969 8.70001 7.95566 8.74668 7.90162 8.79089C7.80583 8.86949 7.71249 8.94809 7.6167 9.0316C7.58722 9.05616 7.56021 9.08072 7.53073 9.10774L9.6529 11.2299C11.974 9.2502 14.919 8.16455 17.9893 8.16455C25.0828 8.16455 30.8549 13.9367 30.8549 21.0302C30.8549 24.4886 29.5016 27.7332 27.0478 30.1673C25.8983 31.3046 24.5179 32.233 23.027 32.8692Z" fill="#C8A35F"/>
</g>
<path d="M54.8643 16.2031V29H52.2363V16.2031H54.8643ZM58.8018 16.2031V18.2686H48.3604V16.2031H58.8018ZM61.2047 16.2031H65.9771C66.9557 16.2031 67.7965 16.3496 68.4996 16.6426C69.2086 16.9355 69.7535 17.3691 70.1344 17.9434C70.5152 18.5176 70.7057 19.2236 70.7057 20.0615C70.7057 20.7471 70.5885 21.3359 70.3541 21.8281C70.1256 22.3145 69.8004 22.7217 69.3785 23.0498C68.9625 23.3721 68.4732 23.6299 67.9107 23.8232L67.0758 24.2627H62.9273L62.9098 22.2061H65.9947C66.4576 22.2061 66.8414 22.124 67.1461 21.96C67.4508 21.7959 67.6793 21.5674 67.8316 21.2744C67.9898 20.9814 68.0689 20.6416 68.0689 20.2549C68.0689 19.8447 67.9928 19.4902 67.8404 19.1914C67.6881 18.8926 67.4566 18.6641 67.1461 18.5059C66.8355 18.3477 66.4459 18.2686 65.9771 18.2686H63.8414V29H61.2047V16.2031ZM68.359 29L65.441 23.2959L68.2271 23.2783L71.1803 28.877V29H68.359ZM78.8391 18.3916L75.3586 29H72.5549L77.3098 16.2031H79.0939L78.8391 18.3916ZM81.7307 29L78.2414 18.3916L77.9602 16.2031H79.7619L84.5432 29H81.7307ZM81.5725 24.2363V26.3018H74.8137V24.2363H81.5725ZM97.0447 16.2031V29H94.408L89.2664 20.4219V29H86.6297V16.2031H89.2664L94.4168 24.79V16.2031H97.0447ZM106.901 25.6514C106.901 25.4229 106.866 25.2178 106.795 25.0361C106.731 24.8486 106.608 24.6787 106.426 24.5264C106.245 24.3682 105.99 24.2129 105.662 24.0605C105.333 23.9082 104.909 23.75 104.387 23.5859C103.807 23.3984 103.256 23.1875 102.735 22.9531C102.219 22.7188 101.762 22.4463 101.364 22.1357C100.971 21.8193 100.661 21.4531 100.432 21.0371C100.209 20.6211 100.098 20.1377 100.098 19.5869C100.098 19.0537 100.215 18.5703 100.45 18.1367C100.684 17.6973 101.012 17.3223 101.434 17.0117C101.856 16.6953 102.354 16.4521 102.928 16.2822C103.508 16.1123 104.144 16.0273 104.835 16.0273C105.779 16.0273 106.602 16.1973 107.305 16.5371C108.008 16.877 108.553 17.3428 108.94 17.9346C109.332 18.5264 109.529 19.2031 109.529 19.9648H106.91C106.91 19.5898 106.83 19.2617 106.672 18.9805C106.52 18.6934 106.286 18.4678 105.969 18.3037C105.659 18.1396 105.266 18.0576 104.791 18.0576C104.334 18.0576 103.954 18.1279 103.649 18.2686C103.344 18.4033 103.116 18.5879 102.963 18.8223C102.811 19.0508 102.735 19.3086 102.735 19.5957C102.735 19.8125 102.787 20.0088 102.893 20.1846C103.004 20.3604 103.168 20.5244 103.385 20.6768C103.602 20.8291 103.869 20.9727 104.185 21.1074C104.501 21.2422 104.868 21.374 105.284 21.5029C105.981 21.7139 106.593 21.9512 107.121 22.2148C107.654 22.4785 108.099 22.7744 108.456 23.1025C108.814 23.4307 109.083 23.8027 109.265 24.2188C109.447 24.6348 109.537 25.1064 109.537 25.6338C109.537 26.1904 109.429 26.6885 109.212 27.1279C108.996 27.5674 108.682 27.9395 108.272 28.2441C107.862 28.5488 107.372 28.7803 106.804 28.9385C106.236 29.0967 105.6 29.1758 104.897 29.1758C104.264 29.1758 103.64 29.0938 103.025 28.9297C102.41 28.7598 101.85 28.5049 101.346 28.165C100.848 27.8252 100.45 27.3916 100.151 26.8643C99.852 26.3369 99.7025 25.7129 99.7025 24.9922H102.348C102.348 25.3906 102.41 25.7275 102.533 26.0029C102.656 26.2783 102.829 26.501 103.051 26.6709C103.28 26.8408 103.549 26.9639 103.86 27.04C104.176 27.1162 104.522 27.1543 104.897 27.1543C105.354 27.1543 105.729 27.0898 106.022 26.9609C106.321 26.832 106.54 26.6533 106.681 26.4248C106.828 26.1963 106.901 25.9385 106.901 25.6514Z" fill="white"/>
<path d="M127.755 22.3115V27.3828C127.556 27.623 127.249 27.8838 126.833 28.165C126.417 28.4404 125.88 28.6777 125.224 28.877C124.568 29.0762 123.774 29.1758 122.842 29.1758C122.016 29.1758 121.263 29.041 120.584 28.7715C119.904 28.4961 119.318 28.0947 118.826 27.5674C118.339 27.04 117.964 26.3955 117.701 25.6338C117.437 24.8662 117.305 23.9902 117.305 23.0059V22.2061C117.305 21.2217 117.431 20.3457 117.683 19.5781C117.941 18.8105 118.307 18.1631 118.782 17.6357C119.256 17.1084 119.822 16.707 120.478 16.4316C121.134 16.1562 121.864 16.0186 122.667 16.0186C123.78 16.0186 124.694 16.2002 125.409 16.5635C126.124 16.9209 126.669 17.4189 127.044 18.0576C127.424 18.6904 127.659 19.417 127.747 20.2373H125.189C125.125 19.8037 125.002 19.4258 124.82 19.1035C124.638 18.7812 124.378 18.5293 124.038 18.3477C123.704 18.166 123.27 18.0752 122.737 18.0752C122.297 18.0752 121.905 18.166 121.559 18.3477C121.219 18.5234 120.932 18.7842 120.698 19.1299C120.463 19.4756 120.285 19.9033 120.162 20.4131C120.039 20.9229 119.977 21.5146 119.977 22.1885V23.0059C119.977 23.6738 120.042 24.2656 120.171 24.7812C120.299 25.291 120.49 25.7217 120.742 26.0732C121 26.4189 121.316 26.6797 121.691 26.8555C122.066 27.0312 122.503 27.1191 123.001 27.1191C123.417 27.1191 123.762 27.084 124.038 27.0137C124.319 26.9434 124.545 26.8584 124.714 26.7588C124.89 26.6533 125.025 26.5537 125.119 26.46V24.1924H122.711V22.3115H127.755ZM141.294 22.3027V22.9092C141.294 23.8818 141.162 24.7549 140.899 25.5283C140.635 26.3018 140.263 26.9609 139.782 27.5059C139.302 28.0449 138.728 28.458 138.06 28.7451C137.398 29.0322 136.662 29.1758 135.854 29.1758C135.051 29.1758 134.316 29.0322 133.648 28.7451C132.986 28.458 132.411 28.0449 131.925 27.5059C131.439 26.9609 131.061 26.3018 130.791 25.5283C130.528 24.7549 130.396 23.8818 130.396 22.9092V22.3027C130.396 21.3242 130.528 20.4512 130.791 19.6836C131.055 18.9102 131.427 18.251 131.907 17.7061C132.394 17.1611 132.968 16.7451 133.63 16.458C134.298 16.1709 135.033 16.0273 135.836 16.0273C136.645 16.0273 137.38 16.1709 138.042 16.458C138.71 16.7451 139.284 17.1611 139.765 17.7061C140.251 18.251 140.626 18.9102 140.89 19.6836C141.159 20.4512 141.294 21.3242 141.294 22.3027ZM138.631 22.9092V22.2852C138.631 21.6055 138.57 21.0078 138.446 20.4922C138.323 19.9766 138.142 19.543 137.902 19.1914C137.661 18.8398 137.368 18.5762 137.023 18.4004C136.677 18.2188 136.281 18.1279 135.836 18.1279C135.391 18.1279 134.995 18.2188 134.65 18.4004C134.31 18.5762 134.02 18.8398 133.779 19.1914C133.545 19.543 133.366 19.9766 133.243 20.4922C133.12 21.0078 133.059 21.6055 133.059 22.2852V22.9092C133.059 23.583 133.12 24.1807 133.243 24.7021C133.366 25.2178 133.548 25.6543 133.788 26.0117C134.029 26.3633 134.321 26.6299 134.667 26.8115C135.013 26.9932 135.408 27.084 135.854 27.084C136.299 27.084 136.695 26.9932 137.04 26.8115C137.386 26.6299 137.676 26.3633 137.91 26.0117C138.145 25.6543 138.323 25.2178 138.446 24.7021C138.57 24.1807 138.631 23.583 138.631 22.9092ZM152.319 26.9434V29H145.877V26.9434H152.319ZM146.729 16.2031V29H144.093V16.2031H146.729ZM158.66 29H155.873L155.891 26.9434H158.66C159.351 26.9434 159.934 26.7881 160.409 26.4775C160.883 26.1611 161.241 25.7012 161.481 25.0977C161.727 24.4941 161.85 23.7646 161.85 22.9092V22.2852C161.85 21.6289 161.78 21.0518 161.639 20.5537C161.504 20.0557 161.302 19.6367 161.033 19.2969C160.763 18.957 160.432 18.7021 160.039 18.5322C159.647 18.3564 159.196 18.2686 158.686 18.2686H155.821V16.2031H158.686C159.541 16.2031 160.324 16.3496 161.033 16.6426C161.747 16.9297 162.366 17.3428 162.887 17.8818C163.409 18.4209 163.81 19.0654 164.091 19.8154C164.378 20.5596 164.522 21.3887 164.522 22.3027V22.9092C164.522 23.8174 164.378 24.6465 164.091 25.3965C163.81 26.1465 163.409 26.791 162.887 27.3301C162.371 27.8633 161.753 28.2764 161.033 28.5693C160.318 28.8564 159.527 29 158.66 29ZM157.368 16.2031V29H154.731V16.2031H157.368Z" fill="#C8A35F"/>
<defs>
<clipPath id="clip0_8_172">
<rect width="39.0194" height="46" fill="white"/>
</clipPath>
</defs>
</svg>
