<svg width="1167" height="411" viewBox="0 0 1167 411" fill="none" xmlns="http://www.w3.org/2000/svg">
<g clip-path="url(#clip0_411_176)">
<path d="M687.881 98.6487H672.402L680.142 76.8674L687.881 98.6487ZM710.746 122.05L685.902 60.8518H674.475L649.631 122.05H664.121L668.532 109.722H691.845L696.251 122.05H710.746Z" fill="#009999"/>
<path d="M734.594 122.05H770.053V109.81H748.094V60.8518H734.594V122.05Z" fill="#009999"/>
<path d="M810.104 100.18H819.552C829.453 100.18 838.271 92.8883 838.271 80.4716C838.271 68.8622 829.453 60.8518 819.552 60.8518H796.604V122.05H810.104V100.18ZM817.302 71.4716C821.265 71.4716 825.401 74.8883 825.401 80.4716C825.401 86.3206 821.265 89.5601 817.302 89.5601H810.104V71.4716H817.302Z" fill="#009999"/>
<path d="M896.685 60.8518V85.2372H876.524V60.8518H863.024V122.05H876.524V97.482H896.685V122.05H911.081V60.8518H896.685Z" fill="#009999"/>
<path d="M973.181 98.6487H957.702L965.441 76.8674L973.181 98.6487ZM996.045 122.05L971.202 60.8518H959.775L934.931 122.05H949.42L953.832 109.722H977.144L981.551 122.05H996.045Z" fill="#009999"/>
<path d="M464.205 206.549H448.726L456.465 184.768L464.205 206.549ZM487.07 229.95L462.226 168.752H450.799L425.955 229.95H440.445L444.856 217.622H468.169L472.575 229.95H487.07Z" fill="#009999"/>
<path d="M546.647 168.752V204.122C546.647 212.581 544.126 217.351 534.856 217.351C525.678 217.351 523.069 212.581 523.069 204.122V168.752H509.569V206.101C509.569 222.388 518.928 230.851 534.856 230.851C550.788 230.851 560.147 222.388 560.147 206.101V168.752H546.647Z" fill="#009999"/>
<path d="M613.609 180.992H631.067V168.752H582.645V180.992H600.109V229.95H613.609V180.992Z" fill="#009999"/>
<path d="M702.168 199.263C702.168 208.711 693.616 217.351 684.168 217.351C674.715 217.351 666.168 208.711 666.168 199.263C666.168 189.81 674.715 181.263 684.168 181.263C693.616 181.263 702.168 189.81 702.168 199.263ZM715.668 199.351C715.668 182.429 701.085 167.851 684.168 167.851C667.246 167.851 652.668 182.429 652.668 199.351C652.668 216.268 667.246 230.851 684.168 230.851C701.085 230.851 715.668 216.268 715.668 199.351Z" fill="#009999"/>
<path d="M818.536 229.95L806.656 168.752H790.635L777.947 211.68L765.166 168.752H749.145L737.265 229.95H752.119L759.317 187.742L771.286 229.95H784.515L796.489 187.742L803.687 229.95H818.536Z" fill="#009999"/>
<path d="M875.685 206.549H860.206L867.945 184.768L875.685 206.549ZM898.549 229.95L873.706 168.752H862.279L837.435 229.95H851.924L856.336 217.622H879.648L884.055 229.95H898.549Z" fill="#009999"/>
<path d="M948.408 180.992H965.867V168.752H917.445V180.992H934.908V229.95H948.408V180.992Z" fill="#009999"/>
<path d="M1003.22 229.95V168.752H989.718V229.95H1003.22Z" fill="#009999"/>
<path d="M1079.27 199.263C1079.27 208.711 1070.72 217.351 1061.27 217.351C1051.81 217.351 1043.27 208.711 1043.27 199.263C1043.27 189.81 1051.81 181.263 1061.27 181.263C1070.72 181.263 1079.27 189.81 1079.27 199.263ZM1092.77 199.351C1092.77 182.429 1078.18 167.851 1061.27 167.851C1044.35 167.851 1029.77 182.429 1029.77 199.351C1029.77 216.268 1044.35 230.851 1061.27 230.851C1078.18 230.851 1092.77 216.268 1092.77 199.351Z" fill="#009999"/>
<path d="M1167.37 229.95V168.752H1153.87V206.909L1132.82 168.752H1119.32V229.95H1132.82V191.789L1153.87 229.95H1167.37Z" fill="#009999"/>
<path d="M701.245 300.45C707.183 300.45 713.308 302.883 716.277 309.362H731.126C726.896 296.669 714.745 287.851 701.245 287.851C683.964 287.851 669.745 302.07 669.745 319.351C669.745 336.633 683.964 350.851 701.245 350.851C718.704 350.851 732.657 336.721 732.657 319.351V317.278H702.506V327.45H718.073C714.745 336.721 707.183 338.612 701.245 338.612C691.527 338.612 683.428 329.883 683.428 319.528C683.428 309.179 691.527 300.45 701.245 300.45Z" fill="#009999"/>
<path d="M835.524 349.95L823.644 288.752H807.623L794.935 331.679L782.154 288.752H766.133L754.253 349.95H769.107L776.305 307.742L788.274 349.95H801.503L813.477 307.742L820.675 349.95H835.524Z" fill="#009999"/>
<path d="M888.897 332.039C888.897 336.091 885.475 339.419 881.423 339.419H872.876V324.658H881.423C885.475 324.658 888.897 328.08 888.897 332.039ZM884.663 306.481C884.663 310.351 881.423 313.591 877.553 313.591H872.876V299.372H877.553C881.423 299.372 884.663 302.518 884.663 306.481ZM902.663 332.398C902.663 324.122 897.085 318.632 890.246 317.013C894.835 314.94 897.538 310.263 897.538 304.049C897.538 295.679 890.876 288.752 880.434 288.752H859.376V349.95H884.126C895.824 349.95 902.663 342.929 902.663 332.398Z" fill="#009999"/>
<path d="M960.628 288.752V313.138H940.466V288.752H926.966V349.95H940.466V325.382H960.628V349.95H975.023V288.752H960.628Z" fill="#009999"/>
</g>
<path d="M53.5 266H19L171.5 1L411 410H56.5L105.5 348H303L171.5 125L119 216H150L1 410L53.5 266Z" fill="#009999" stroke="#009999"/>
<defs>
<clipPath id="clip0_411_176">
<rect width="967" height="289" fill="white" transform="translate(200 61)"/>
</clipPath>
</defs>
</svg>
