<svg width="54" height="45" viewBox="0 0 54 45" fill="none" xmlns="http://www.w3.org/2000/svg">
<path id="Vector" d="M52.283 22.34L53.4646 23.5217L47.8787 29.215L42.1853 23.5217L43.2595 22.34L47.8787 26.7443L52.283 22.34ZM49.1677 22.34C49.1677 23.3426 49.1319 24.0946 49.0603 24.5959L47.3416 24.4885C47.4132 23.9872 47.449 23.2352 47.449 22.2326C47.3774 16.7183 45.3722 11.9917 41.4333 8.05292C37.4945 4.11412 32.768 2.14471 27.2537 2.14471C23.6013 2.14471 20.1996 3.0757 17.0486 4.93768C13.8975 6.79966 11.4268 9.30617 9.63647 12.4572L8.13257 11.5978C10.0662 8.16034 12.7517 5.43898 16.1892 3.43378C19.6267 1.42857 23.3149 0.425964 27.2537 0.425964C33.2693 0.425964 38.4076 2.5565 42.6687 6.81757C46.9298 11.0786 49.0961 16.1812 49.1677 22.1252V22.34ZM44.8708 32.2228L46.3748 33.0822C44.4412 36.5197 41.7556 39.2411 38.3181 41.2463C34.8806 43.2515 31.1925 44.2541 27.2537 44.2541C21.3097 44.2541 16.2071 42.1594 11.946 37.9699C7.68498 33.7805 5.48283 28.7137 5.3396 22.7697V22.4474V22.34C5.3396 21.3374 5.37541 20.5855 5.44702 20.0842L7.16577 20.1916C7.09416 20.6929 7.05835 21.4448 7.05835 22.4474C7.05835 27.9618 9.04565 32.6883 13.0203 36.6271C16.9949 40.5659 21.7393 42.5353 27.2537 42.5353C30.906 42.5353 34.3077 41.6043 37.4587 39.7424C40.6098 37.8804 43.0805 35.3739 44.8708 32.2228ZM6.62866 15.465L12.2146 21.1584L11.033 22.34L6.62866 17.9357L2.11694 22.34L0.935303 21.1584L6.62866 15.465Z" fill="white"/>
</svg>
