<svg width="49" height="49" viewBox="0 0 49 49" fill="none" xmlns="http://www.w3.org/2000/svg">
<path id="Vector" d="M28.2275 5.5412V27.7775V29.0666L26.9385 29.4963L7.60254 34.3303C8.24707 35.6909 8.99902 36.98 9.8584 38.1974C11.2191 40.0594 12.6872 41.5633 14.2627 42.7092C17.915 45.3589 21.9971 46.6838 26.5088 46.6838C29.3018 46.6838 31.9873 46.1467 34.5654 45.0724C37.0719 43.9982 39.2562 42.5301 41.1182 40.6682C42.9801 38.8062 44.4482 36.6219 45.5225 34.1154C46.5967 31.5373 47.1338 28.8517 47.1338 26.0588C47.1338 20.3296 45.1286 15.4598 41.1182 11.4494C37.6091 7.94029 33.3122 5.97089 28.2275 5.5412ZM26.5088 3.71503C32.6676 3.71503 37.9313 5.89927 42.2998 10.2678C46.6683 14.6362 48.8525 19.8999 48.8525 26.0588C48.8525 32.2176 46.6683 37.4813 42.2998 41.8498C37.9313 46.2183 32.6676 48.4025 26.5088 48.4025C21.639 48.4025 17.2347 46.9702 13.2959 44.1057C9.3571 41.2411 6.67155 37.5529 5.23926 33.0412L26.5088 27.7775V3.71503ZM23.0713 1.99628C19.6338 2.13951 16.5902 2.78404 13.9404 3.92987C11.3623 5.0757 9.17806 6.72284 7.3877 8.87128C4.09342 12.7385 2.44629 17.286 2.44629 22.5139C2.44629 25.2352 2.87598 27.7417 3.73535 30.0334L23.0713 25.092V1.99628ZM24.79 0.277527V26.4885L2.76855 32.0744C2.19564 31.0718 1.73014 29.7648 1.37207 28.1535C1.014 26.5422 0.799154 25.1994 0.727539 24.1252V22.5139C0.727539 19.9357 1.15723 17.3934 2.0166 14.8869C2.87598 12.3804 4.18294 9.99921 5.9375 7.74335C7.69206 5.48749 10.1449 3.67922 13.2959 2.31854C16.4469 0.957867 20.0635 0.277527 24.1455 0.277527H24.79Z" fill="white"/>
</svg>
