<svg width="42" height="42" viewBox="0 0 42 42" fill="none" xmlns="http://www.w3.org/2000/svg">
<path id="Vector" d="M13.8627 14.0353C13.8627 14.0353 14.364 13.534 15.3666 12.5314C16.3692 11.5288 18.3028 11.0275 21.1674 11.0275C24.0319 11.0275 26.4668 12.0301 28.472 14.0353C30.4773 16.0405 31.4799 18.4754 31.4799 21.34C31.4799 24.2046 30.4773 26.6395 28.472 28.6447C26.4668 30.6499 24.0319 31.6525 21.1674 31.6525C18.3028 31.6525 15.8679 30.6499 13.8627 28.6447C11.8575 26.6395 10.8549 24.2046 10.8549 21.34C10.8549 18.4754 11.8575 16.0405 13.8627 14.0353ZM15.098 27.4094C15.098 27.4094 15.5188 27.8301 16.3602 28.6716C17.2017 29.513 18.8041 29.9338 21.1674 29.9338C23.5306 29.9338 25.5538 29.0923 27.2367 27.4094C28.9196 25.7264 29.7611 23.7033 29.7611 21.34C29.7611 18.9767 28.9196 16.9536 27.2367 15.2707C25.5538 13.5877 23.5306 12.7463 21.1674 12.7463C18.8041 12.7463 16.781 13.5877 15.098 15.2707C13.4151 16.9536 12.5736 18.9767 12.5736 21.34C12.5736 23.7033 13.4151 25.7264 15.098 27.4094ZM15.2592 2.75604C14.1849 3.11412 13.1107 3.5438 12.0365 4.0451C12.1797 4.61802 12.1797 5.4774 12.0365 6.62323C11.8217 8.05552 11.1771 9.30878 10.1029 10.383C8.74223 11.7437 7.09509 12.424 5.1615 12.424C4.51697 12.424 4.05147 12.3882 3.76501 12.3166C3.26371 13.3908 2.83403 14.465 2.47595 15.5392C3.04887 15.8973 3.65759 16.506 4.30212 17.3654C5.1615 18.5113 5.59119 19.8361 5.59119 21.34C5.59119 22.7723 5.1615 24.0972 4.30212 25.3146C3.65759 26.174 3.04887 26.7827 2.47595 27.1408C2.83403 28.215 3.26371 29.2892 3.76501 30.3635C4.05147 30.2919 4.51697 30.256 5.1615 30.256C7.09509 30.256 8.74223 30.9364 10.1029 32.2971C11.1771 33.3713 11.8217 34.6245 12.0365 36.0568C12.1797 37.2027 12.1797 38.062 12.0365 38.6349C13.1107 39.1363 14.1849 39.5659 15.2592 39.924C15.6172 39.3511 16.226 38.7424 17.0853 38.0978C18.3028 37.2385 19.6276 36.8088 21.0599 36.8088C22.5638 36.8088 23.8887 37.2385 25.0345 38.0978C25.8939 38.7424 26.5026 39.3511 26.8607 39.924C27.9349 39.5659 29.0092 39.1363 30.0834 38.6349C29.9401 38.062 29.9401 37.2027 30.0834 36.0568C30.2982 34.6245 30.9427 33.3713 32.017 32.2971C33.3776 30.9364 35.0248 30.256 36.9584 30.256C37.6029 30.256 38.0684 30.2919 38.3549 30.3635C38.8562 29.2892 39.2858 28.215 39.6439 27.1408C39.071 26.7827 38.4623 26.174 37.8177 25.3146C36.9584 24.0972 36.5287 22.7723 36.5287 21.34C36.5287 19.8361 36.9584 18.5113 37.8177 17.3654C38.4623 16.506 39.071 15.8973 39.6439 15.5392C39.2858 14.465 38.8562 13.3908 38.3549 12.3166C38.0684 12.3882 37.6029 12.424 36.9584 12.424C35.0248 12.424 33.3776 11.7437 32.017 10.383C30.9427 9.30878 30.2982 8.05552 30.0834 6.62323C29.9401 5.4774 29.9401 4.61802 30.0834 4.0451C29.0092 3.5438 27.9349 3.11412 26.8607 2.75604C26.5026 3.32896 25.8939 3.93768 25.0345 4.58221C23.8887 5.44159 22.5638 5.87128 21.0599 5.87128C19.6276 5.87128 18.3028 5.44159 17.0853 4.58221C16.226 3.93768 15.6172 3.32896 15.2592 2.75604ZM26.0013 0.715027C28.293 1.28794 30.334 2.14732 32.1244 3.29315C31.1218 5.5132 31.4799 7.4826 33.1986 9.20135C34.2012 10.204 35.4545 10.7053 36.9584 10.7053C37.8177 10.7053 38.5339 10.562 39.1068 10.2756C40.2526 12.0659 41.112 14.107 41.6849 16.3986C39.3933 17.258 38.2474 18.9051 38.2474 21.34C38.2474 23.7749 39.3933 25.4221 41.6849 26.2814C41.112 28.5731 40.2526 30.6141 39.1068 32.4045C38.5339 32.118 37.8177 31.9748 36.9584 31.9748C35.4545 31.9748 34.2012 32.4761 33.1986 33.4787C31.4799 35.1974 31.1218 37.1668 32.1244 39.3869C30.334 40.5327 28.293 41.3921 26.0013 41.965C25.142 39.6734 23.4948 38.5275 21.0599 38.5275C18.625 38.5275 16.9779 39.6734 16.1185 41.965C13.8269 41.3921 11.7858 40.5327 9.99548 39.3869C10.9981 37.1668 10.64 35.1974 8.92126 33.4787C7.91866 32.4761 6.66541 31.9748 5.1615 31.9748C4.30212 31.9748 3.58598 32.118 3.01306 32.4045C1.86723 30.6141 1.00785 28.5731 0.434937 26.2814C2.7266 25.4221 3.87244 23.7749 3.87244 21.34C3.87244 18.9051 2.7266 17.258 0.434937 16.3986C1.00785 14.107 1.86723 12.0659 3.01306 10.2756C3.58598 10.562 4.30212 10.7053 5.1615 10.7053C6.66541 10.7053 7.91866 10.204 8.92126 9.20135C10.64 7.4826 10.9981 5.5132 9.99548 3.29315C11.7858 2.14732 13.8269 1.28794 16.1185 0.715027C16.9779 3.00669 18.625 4.15253 21.0599 4.15253C23.4948 4.15253 25.142 3.00669 26.0013 0.715027Z" fill="white"/>
</svg>
