<svg width="33" height="21" viewBox="0 0 33 21" fill="none" xmlns="http://www.w3.org/2000/svg">
<path id="Vector" d="M1.78442 2.23059C1.26359 1.97017 0.925049 1.68372 0.768799 1.37122C0.664632 1.05872 0.677653 0.850382 0.807861 0.746216C0.93807 0.64205 1.23755 0.589966 1.7063 0.589966H16.6282H31.55C32.0188 0.589966 32.3183 0.64205 32.4485 0.746216C32.5787 0.850382 32.5917 1.05872 32.4875 1.37122C32.3313 1.68372 31.9928 1.97017 31.4719 2.23059C22.8782 6.91809 18.4771 9.31392 18.2688 9.41809C17.8521 9.62642 17.3053 9.73059 16.6282 9.73059C15.9511 9.73059 15.4042 9.62642 14.9875 9.41809C14.7792 9.31392 10.3782 6.91809 1.78442 2.23059ZM32.175 2.54309C32.5396 2.49101 32.7349 2.47799 32.761 2.50403C32.787 2.53007 32.8 2.6733 32.8 2.93372V18.9493C32.8 19.3139 32.6047 19.6785 32.2141 20.0431C31.8235 20.4077 31.4459 20.59 31.0813 20.59H16.6282H2.17505C1.75838 20.59 1.34172 20.4077 0.925049 20.0431C0.508382 19.6785 0.300049 19.3139 0.300049 18.9493V2.93372C0.300049 2.46497 0.534424 2.33476 1.00317 2.54309C1.15942 2.64726 1.81047 3.07694 2.9563 3.83215C4.10213 4.58736 5.5214 5.53788 7.21411 6.68372C8.90682 7.82955 10.274 8.74101 11.3157 9.41809L4.8313 16.6837C4.67505 16.84 4.64901 16.9702 4.75317 17.0743C4.80526 17.1264 4.88338 17.1394 4.98755 17.1134C5.09172 17.0874 5.16984 17.0483 5.22192 16.9962L12.8782 10.5118C13.9719 11.241 14.675 11.6837 14.9875 11.84C15.4042 12.0483 15.9511 12.1525 16.6282 12.1525C17.3053 12.1525 17.8521 12.0483 18.2688 11.84C18.5813 11.6837 19.2844 11.241 20.3782 10.5118L28.0344 16.9962C28.0865 17.0483 28.1646 17.0874 28.2688 17.1134C28.373 17.1394 28.4511 17.1264 28.5032 17.0743C28.5553 17.0223 28.5032 16.892 28.3469 16.6837L21.9407 9.41809C22.9823 8.74101 24.3365 7.82955 26.0032 6.68372C27.6698 5.53788 29.0761 4.58736 30.2219 3.83215C31.3678 3.07694 32.0188 2.64726 32.175 2.54309Z" fill="#BBBBBB"/>
</svg>
