<svg width="24" height="24" viewBox="0 0 24 24" fill="none" xmlns="http://www.w3.org/2000/svg">
<g id="Main/Large/Heart">
<path id="Icon" fill-rule="evenodd" clip-rule="evenodd" d="M11.9488 21L3.66155 12.7516C1.44615 10.509 1.44615 6.90877 3.66155 4.66619C4.72834 3.59951 6.17706 3 7.6879 3C9.19875 3 10.6475 3.59951 11.7143 4.66619L11.9488 4.90712L12.1833 4.66619C13.2501 3.59951 14.6989 3 16.2097 3C17.7205 3 19.1693 3.59951 20.236 4.66619C22.4476 6.91033 22.4476 10.5075 20.236 12.7516L11.9488 21ZM7.68445 4.41108C6.5494 4.40732 5.46063 4.85941 4.6638 5.66535C2.9995 7.35512 2.9995 10.0627 4.6638 11.7524L11.9489 19.0017L19.234 11.7524C20.8983 10.0627 20.8983 7.35512 19.234 5.66535C18.4341 4.86697 17.3487 4.41837 16.2169 4.41837C15.0851 4.41837 13.9997 4.86697 13.1998 5.66535L11.9489 6.89836L10.7051 5.67243C9.90673 4.86791 8.81959 4.41395 7.68445 4.41108Z" fill="black"/>
</g>
</svg>
