<svg width="26" height="36" viewBox="0 0 26 36" fill="none" xmlns="http://www.w3.org/2000/svg">
<path d="M4.42188 4.25378C4.42188 4.25378 5.03385 3.65483 6.25781 2.45691C7.48177 1.25899 9.8125 0.660034 13.25 0.660034C16.6875 0.660034 19.6302 1.85795 22.0781 4.25378C24.526 6.64962 25.75 9.54024 25.75 12.9257C25.75 15.634 24.7083 18.8892 22.625 22.6913C20.5417 26.4934 18.4583 29.6184 16.375 32.0663L13.25 35.66C12.8854 35.2955 12.4297 34.7876 11.8828 34.1366C11.3359 33.4856 10.3464 32.2225 8.91406 30.3475C7.48177 28.4725 6.21875 26.6496 5.125 24.8788C4.03125 23.108 3.02865 21.1027 2.11719 18.8632C1.20573 16.6236 0.75 14.6444 0.75 12.9257C0.75 9.54024 1.97396 6.64962 4.42188 4.25378ZM10.0859 16.0116C10.0859 16.0116 10.3008 16.2264 10.7305 16.6561C11.1602 17.0858 12 17.3007 13.25 17.3007C14.5 17.3007 15.5547 16.871 16.4141 16.0116C17.2734 15.1522 17.7031 14.1236 17.7031 12.9257C17.7031 11.7277 17.2734 10.6991 16.4141 9.83972C15.5547 8.98035 14.5 8.55066 13.25 8.55066C12 8.55066 10.9453 8.98035 10.0859 9.83972C9.22656 10.6991 8.79688 11.7277 8.79688 12.9257C8.79688 14.1236 9.22656 15.1522 10.0859 16.0116Z" fill="#106E5B"/>
</svg>
