<svg width="28" height="29" viewBox="0 0 28 29" fill="none" xmlns="http://www.w3.org/2000/svg">
<path id="Vector" d="M26.7054 20.8601C28.2679 22.4226 28.2679 24.1414 26.7054 26.0164C26.0804 26.7455 25.4684 27.2924 24.8694 27.657C24.2705 28.0216 23.7757 28.2299 23.385 28.282C22.9944 28.3341 22.4345 28.3601 21.7054 28.3601C19.6741 28.3601 17.2522 27.3184 14.4397 25.2351C12.2001 23.6205 10.1689 21.8757 8.34598 20.0007C6.00223 17.5528 3.94494 14.7664 2.17411 11.6414C0.611607 8.72469 0.142857 6.32886 0.767857 4.45386C1.08036 3.46427 1.80952 2.6049 2.95536 1.87573L3.03348 1.79761C3.97098 1.17261 4.80432 0.860107 5.53348 0.860107C6.52307 0.860107 7.40848 1.32886 8.18973 2.26636L8.26786 2.34448C9.46577 3.90698 10.2991 5.13094 10.7679 6.01636C11.5491 7.63094 11.5231 9.01115 10.6897 10.157C10.0647 10.9903 9.75223 11.5893 9.75223 11.9539C9.75223 12.1101 10.0908 12.5789 10.7679 13.3601L10.846 13.4382C12.096 14.8445 12.7731 15.5997 12.8772 15.7039C12.9293 15.7039 12.9814 15.7299 13.0335 15.782C13.0856 15.8341 13.1376 15.8861 13.1897 15.9382L13.346 16.0945C14.3876 17.1361 15.1429 17.8653 15.6116 18.282L15.6897 18.3601C16.1585 18.7768 16.471 18.9851 16.6272 18.9851C16.8876 18.9851 17.6429 18.5945 18.8929 17.8132C19.2574 17.5528 19.7001 17.4226 20.221 17.4226C21.1585 17.4226 22.2913 17.8132 23.6194 18.5945C24.9475 19.3757 25.9762 20.1309 26.7054 20.8601Z" fill="#106E5B"/>
</svg>
