<svg width="40" height="40" viewBox="0 0 40 40" fill="none" xmlns="http://www.w3.org/2000/svg">
<path d="M20 0L20.6251 16.4547L26.8404 1.20615L21.8 16.8823L32.8558 4.67911L22.7578 17.686L37.3205 10L23.3829 18.7687L39.6962 16.527L23.6 20L39.6962 23.473L23.3829 21.2313L37.3205 30L22.7578 22.314L32.8558 35.3209L21.8 23.1177L26.8404 38.7939L20.6251 23.5453L20 40L19.3749 23.5453L13.1596 38.7939L18.2 23.1177L7.14425 35.3209L17.2422 22.314L2.67949 30L16.6171 21.2313L0.303844 23.473L16.4 20L0.303844 16.527L16.6171 18.7687L2.67949 10L17.2422 17.686L7.14425 4.67911L18.2 16.8823L13.1596 1.20615L19.3749 16.4547L20 0Z" fill="#2C2C2C"/>
</svg>
