<svg width="38" height="31" viewBox="0 0 38 31" fill="none" xmlns="http://www.w3.org/2000/svg">
<path id="Vector" d="M37.6775 4.18372C36.74 5.64205 35.49 6.94413 33.9275 8.08997V9.02747C33.9275 14.4962 31.9613 19.4572 28.0291 23.9103C24.0968 28.3634 18.8754 30.59 12.365 30.59C8.19832 30.59 4.34416 29.4441 0.80249 27.1525C1.63582 27.2566 2.23478 27.3087 2.59937 27.3087C6.08895 27.3087 9.21395 26.215 11.9744 24.0275C10.3598 23.9754 8.90145 23.4676 7.59937 22.504C6.29728 21.5405 5.41187 20.3035 4.94312 18.7931C5.56812 18.8973 6.03687 18.9493 6.34937 18.9493C6.8702 18.9493 7.54728 18.8452 8.38062 18.6368C6.66187 18.2723 5.21655 17.3999 4.04468 16.0197C2.8728 14.6394 2.28687 13.0379 2.28687 11.215V11.1368C3.4327 11.7618 4.57853 12.0743 5.72437 12.0743C3.48478 10.616 2.36499 8.50663 2.36499 5.74622C2.36499 4.44413 2.70353 3.19413 3.38062 1.99622C7.39103 6.94413 12.5733 9.57434 18.9275 9.88684C18.8233 9.52226 18.7712 8.94934 18.7712 8.16809C18.7712 6.03267 19.5004 4.2358 20.9587 2.77747C22.4171 1.31913 24.2139 0.589966 26.3494 0.589966C28.4848 0.589966 30.3077 1.39726 31.8181 3.01184C33.3806 2.75142 34.9952 2.12642 36.6619 1.13684C36.141 2.95976 35.0212 4.36601 33.3025 5.35559C34.9171 5.19934 36.3754 4.80872 37.6775 4.18372Z" fill="#BBBBBB"/>
</svg>
