<svg width="158" height="29" viewBox="0 0 158 29" fill="none" xmlns="http://www.w3.org/2000/svg">
<g clip-path="url(#clip0_1_102)">
<path d="M3.87562 3.29559C6.0298 1.33372 8.9549 0.188585 11.9195 0.0461529C12.9342 0.0461529 13.9518 0.0519279 14.9665 0.0432129C14.9147 1.08088 14.9665 2.12137 14.936 3.15898C14.7928 5.47838 13.8939 7.74544 12.3796 9.56488C10.4113 12.0122 7.40095 13.6543 4.20469 14.0787C2.80919 14.2938 1.39232 14.1572 -0.0122646 14.195C0.0120954 13.0527 -0.0640822 11.9076 0.0303653 10.7682C0.304625 7.9431 1.70317 5.23714 3.87562 3.29559Z" fill="#81818B"/>
<path d="M15.9061 0.0432129C16.9939 0.0548679 18.0816 0.0374383 19.1724 0.0490408C21.8872 0.232108 24.5655 1.22614 26.6098 2.94977C28.8645 4.79536 30.4096 7.43448 30.8054 10.2538C30.9792 11.5617 30.8695 12.8841 30.9367 14.1978C29.9859 14.195 29.0383 14.1921 28.0875 14.1978C25.7507 14.1368 23.4533 13.416 21.4972 12.2011C20.5953 11.5849 19.669 10.9601 18.9926 10.1055C17.5088 8.52438 16.5002 6.53925 16.1194 4.4466C15.8329 2.99329 15.9487 1.51101 15.9061 0.0432129Z" fill="#81818B"/>
<path d="M-0.0102239 15.0291C0.955671 15.0813 1.92461 14.9854 2.88741 15.0872C7.00992 15.1714 11.0106 17.3804 13.1464 20.7432C14.3714 22.6266 15.0295 24.8589 14.9442 27.0763C14.9411 27.8035 14.9533 28.5269 14.932 29.2509C13.4024 29.2068 11.8576 29.326 10.3432 29.044C6.97947 28.5038 3.88685 26.5939 2.0251 23.8677C0.614369 21.8854 -0.0894467 19.4644 -0.0163142 17.0723C-0.0163142 16.3892 -0.0163139 15.7091 -0.0102239 15.0291Z" fill="#81818B"/>
<path d="M25.7884 15.337C27.446 14.9853 29.1548 15.0434 30.8401 15.0434L30.9136 15.1132C30.8768 16.6333 31.0018 18.1708 30.6821 19.6735C30.0085 23.045 27.6686 26.0559 24.5209 27.7097C22.5617 28.7506 20.3131 29.2619 18.0736 29.2388C17.3576 29.242 16.6385 29.2273 15.9225 29.2472C15.9225 27.9888 15.8676 26.7248 16.0169 25.4717C16.3643 22.4404 18.0827 19.6182 20.5538 17.7116C22.0833 16.5606 23.8811 15.7265 25.7884 15.337Z" fill="#81818B"/>
<path d="M43.4217 23.6211C43.4217 24.1328 43.2359 24.5657 42.8652 24.92C42.514 25.2547 42.0704 25.422 41.5344 25.422C41.0183 25.422 40.5852 25.2547 40.2345 24.92C39.8838 24.5657 39.7084 24.1328 39.7084 23.6211V5.37753C39.7084 4.86581 39.8838 4.44272 40.2345 4.10819C40.6056 3.75392 41.0598 3.57678 41.5963 3.57678C42.1323 3.57678 42.5654 3.75392 42.8957 4.10819C43.2464 4.44272 43.4217 4.86581 43.4217 5.37753V23.6211Z" fill="#81818B"/>
<path d="M58.3275 9.62842C58.8636 9.62842 59.3072 9.8055 59.6584 10.1598C60.0086 10.4943 60.1839 10.9174 60.1839 11.4291V18.9273C60.1839 21.0134 59.5754 22.6665 58.3585 23.8867C57.141 25.1069 55.3875 25.7168 53.0969 25.7168C50.8074 25.7168 49.0534 25.1069 47.8365 23.8867C46.64 22.6665 46.0415 21.0134 46.0415 18.9273V11.4291C46.0415 10.9174 46.2168 10.4943 46.5675 10.1598C46.9182 9.8055 47.3618 9.62842 47.8984 9.62842C48.4349 9.62842 48.878 9.8055 49.2287 10.1598C49.58 10.4943 49.7553 10.9174 49.7553 11.4291V18.9273C49.7553 20.1278 50.0341 21.0232 50.5906 21.6136C51.1476 22.1844 51.9834 22.4697 53.0969 22.4697C54.2325 22.4697 55.0778 22.1844 55.6353 21.6136C56.1918 21.0232 56.4706 20.1278 56.4706 18.9273V11.4291C56.4706 10.9174 56.646 10.4943 56.9967 10.1598C57.3474 9.8055 57.791 9.62842 58.3275 9.62842Z" fill="#81818B"/>
<path d="M71.3533 9.33325C73.0039 9.33325 74.2208 9.71698 75.0052 10.4845C75.789 11.2324 76.3051 12.2065 76.5524 13.407L76.0263 13.1413L76.2741 12.669C76.5214 12.2163 76.9031 11.7342 77.4191 11.2225C77.9347 10.6912 78.5537 10.2484 79.2756 9.89411C80.0184 9.52015 80.8437 9.33325 81.7514 9.33325C83.2372 9.33325 84.3612 9.63828 85.1246 10.2483C85.9089 10.8584 86.4449 11.6752 86.7337 12.6986C87.023 13.7022 87.1674 14.824 87.1674 16.0639V23.6211C87.1674 24.1328 86.992 24.5656 86.6408 24.92C86.2901 25.2547 85.847 25.422 85.3104 25.422C84.7744 25.422 84.3302 25.2547 83.9795 24.92C83.6288 24.5656 83.4535 24.1328 83.4535 23.6211V16.0639C83.4535 15.4144 83.3711 14.8339 83.2062 14.3221C83.0409 13.7908 82.7416 13.3677 82.3085 13.0528C81.8753 12.7379 81.2564 12.5804 80.4521 12.5804C79.6677 12.5804 78.9973 12.7379 78.4403 13.0528C77.8827 13.3677 77.4601 13.7908 77.1713 14.3221C76.9031 14.8339 76.7687 15.4144 76.7687 16.0639V23.6211C76.7687 24.1328 76.5933 24.5656 76.2432 24.92C75.8925 25.2547 75.4483 25.422 74.9123 25.422C74.3757 25.422 73.9321 25.2547 73.5819 24.92C73.2307 24.5656 73.0553 24.1328 73.0553 23.6211V16.0639C73.0553 15.4144 72.9729 14.8339 72.8075 14.3221C72.6427 13.7908 72.3434 13.3677 71.9103 13.0528C71.4772 12.7379 70.8577 12.5804 70.0534 12.5804C69.2696 12.5804 68.5991 12.7379 68.0416 13.0528C67.4851 13.3677 67.0619 13.7908 66.7732 14.3221C66.5049 14.8339 66.371 15.4144 66.371 16.0639V23.6211C66.371 24.1328 66.1957 24.5656 65.845 24.92C65.4938 25.2547 65.0507 25.422 64.5141 25.422C63.9776 25.422 63.5345 25.2547 63.1832 24.92C62.8325 24.5656 62.6572 24.1328 62.6572 23.6211V11.4292C62.6572 10.9175 62.8325 10.4943 63.1832 10.1598C63.5345 9.80554 63.9776 9.62846 64.5141 9.62846C65.0507 9.62846 65.4938 9.80554 65.845 10.1598C66.1957 10.4943 66.371 10.9175 66.371 11.4292V12.6986L65.9064 12.61C66.0923 12.2754 66.3506 11.9211 66.6803 11.5472C67.0105 11.1536 67.4126 10.7895 67.8872 10.455C68.3618 10.1204 68.8879 9.85473 69.4654 9.65791C70.0434 9.44145 70.6729 9.33325 71.3533 9.33325Z" fill="#81818B"/>
<path d="M93.1361 23.6211C93.1361 24.1328 92.9607 24.5656 92.6095 24.92C92.2593 25.2547 91.8157 25.422 91.2791 25.422C90.7431 25.422 90.299 25.2547 89.9483 24.92C89.5981 24.5656 89.4227 24.1328 89.4227 23.6211V11.4292C89.4227 10.9175 89.5981 10.4943 89.9483 10.1598C90.299 9.80555 90.7431 9.62846 91.2791 9.62846C91.8157 9.62846 92.2593 9.80555 92.6095 10.1598C92.9607 10.4943 93.1361 10.9175 93.1361 11.4292V23.6211ZM91.2482 7.70959C90.5468 7.70959 90.0517 7.60139 89.7624 7.38488C89.4742 7.16842 89.3298 6.78464 89.3298 6.2336V5.67269C89.3298 5.10202 89.4847 4.71819 89.7934 4.52142C90.1236 4.30491 90.6192 4.19666 91.2791 4.19666C92.0015 4.19666 92.5071 4.30491 92.7953 4.52142C93.0846 4.73788 93.229 5.12165 93.229 5.67269V6.2336C93.229 6.80433 93.0741 7.19792 92.7644 7.41438C92.4557 7.6112 91.9496 7.70959 91.2482 7.70959Z" fill="#81818B"/>
<path d="M104.256 9.33325C105.783 9.33325 106.938 9.63828 107.722 10.2483C108.527 10.8584 109.073 11.6752 109.362 12.6986C109.672 13.7022 109.826 14.824 109.826 16.0639V23.6211C109.826 24.1328 109.651 24.5656 109.3 24.92C108.95 25.2547 108.506 25.422 107.969 25.422C107.433 25.422 106.99 25.2547 106.639 24.92C106.288 24.5656 106.112 24.1328 106.112 23.6211V16.0639C106.112 15.4144 106.02 14.8339 105.835 14.3221C105.669 13.7908 105.36 13.3677 104.906 13.0528C104.452 12.7379 103.802 12.5804 102.956 12.5804C102.131 12.5804 101.429 12.7379 100.852 13.0528C100.295 13.3677 99.8618 13.7908 99.5521 14.3221C99.2633 14.8339 99.1184 15.4144 99.1184 16.0639V23.6211C99.1184 24.1328 98.9436 24.5656 98.5929 24.92C98.2422 25.2547 97.7981 25.422 97.262 25.422C96.7255 25.422 96.2819 25.2547 95.9317 24.92C95.5805 24.5656 95.4051 24.1328 95.4051 23.6211V11.4292C95.4051 10.9175 95.5805 10.4943 95.9317 10.1598C96.2819 9.80554 96.7255 9.62846 97.262 9.62846C97.7981 9.62846 98.2422 9.80554 98.5929 10.1598C98.9436 10.4943 99.1184 10.9175 99.1184 11.4292V12.6986L98.6549 12.61C98.8407 12.2754 99.1085 11.9211 99.4592 11.5472C99.8099 11.1536 100.223 10.7895 100.697 10.455C101.172 10.1204 101.708 9.85473 102.306 9.65791C102.905 9.44145 103.555 9.33325 104.256 9.33325Z" fill="#81818B"/>
<path d="M128.2 17.5398C128.2 19.1536 127.818 20.5805 127.055 21.8203C126.312 23.0405 125.301 23.995 124.022 24.6837C122.763 25.3728 121.35 25.7168 119.782 25.7168C118.214 25.7168 116.79 25.3728 115.512 24.6837C114.253 23.995 113.243 23.0405 112.479 21.8203C111.736 20.5805 111.365 19.1536 111.365 17.5398C111.365 15.9261 111.736 14.5091 112.479 13.2889C113.243 12.0491 114.253 11.0848 115.512 10.396C116.79 9.68747 118.214 9.33325 119.782 9.33325C121.35 9.33325 122.763 9.68747 124.022 10.396C125.301 11.0848 126.312 12.0491 127.055 13.2889C127.818 14.5091 128.2 15.9261 128.2 17.5398ZM124.486 17.5398C124.486 16.5362 124.27 15.6703 123.836 14.9421C123.423 14.1942 122.856 13.6137 122.134 13.2004C121.433 12.7871 120.649 12.5804 119.782 12.5804C118.916 12.5804 118.121 12.7871 117.399 13.2004C116.698 13.6137 116.13 14.1942 115.697 14.9421C115.285 15.6703 115.078 16.5362 115.078 17.5398C115.078 18.5239 115.285 19.3898 115.697 20.1377C116.13 20.8658 116.698 21.4365 117.399 21.8498C118.121 22.2632 118.916 22.4697 119.782 22.4697C120.649 22.4697 121.433 22.2632 122.134 21.8498C122.856 21.4365 123.423 20.8658 123.836 20.1377C124.27 19.3898 124.486 18.5239 124.486 17.5398Z" fill="#81818B"/>
<path d="M142.041 9.62842C142.577 9.62842 143.021 9.8055 143.372 10.1598C143.722 10.4943 143.898 10.9174 143.898 11.4291V18.9273C143.898 21.0134 143.289 22.6665 142.072 23.8867C140.854 25.1069 139.101 25.7168 136.811 25.7168C134.521 25.7168 132.767 25.1069 131.55 23.8867C130.353 22.6665 129.755 21.0134 129.755 18.9273V11.4291C129.755 10.9174 129.93 10.4943 130.281 10.1598C130.632 9.8055 131.075 9.62842 131.612 9.62842C132.148 9.62842 132.592 9.8055 132.943 10.1598C133.293 10.4943 133.469 10.9174 133.469 11.4291V18.9273C133.469 20.1278 133.747 21.0232 134.304 21.6136C134.861 22.1844 135.697 22.4697 136.811 22.4697C137.945 22.4697 138.792 22.1844 139.348 21.6136C139.906 21.0232 140.184 20.1278 140.184 18.9273V11.4291C140.184 10.9174 140.36 10.4943 140.71 10.1598C141.061 9.8055 141.505 9.62842 142.041 9.62842Z" fill="#81818B"/>
<path d="M145.411 22.9716C145.205 22.6961 145.112 22.3419 145.133 21.9089C145.154 21.4759 145.422 21.102 145.938 20.7871C146.268 20.5903 146.618 20.5116 146.99 20.551C147.361 20.5707 147.722 20.7477 148.073 21.0823C148.672 21.653 149.301 22.0958 149.961 22.4107C150.621 22.7256 151.446 22.883 152.436 22.883C152.746 22.8633 153.086 22.824 153.458 22.765C153.829 22.6863 154.149 22.5288 154.417 22.2927C154.705 22.0368 154.85 21.653 154.85 21.1413C154.85 20.7084 154.695 20.364 154.386 20.1081C154.076 19.8523 153.664 19.6359 153.148 19.4587C152.653 19.2816 152.096 19.1143 151.477 18.9569C150.837 18.7797 150.177 18.583 149.496 18.3665C148.836 18.15 148.227 17.8745 147.67 17.5398C147.114 17.1856 146.66 16.7232 146.309 16.1524C145.958 15.5817 145.783 14.8633 145.783 13.9975C145.783 13.0134 146.071 12.177 146.649 11.4882C147.227 10.7994 147.97 10.2681 148.877 9.89411C149.806 9.52015 150.775 9.33325 151.786 9.33325C152.426 9.33325 153.096 9.41195 153.798 9.5694C154.499 9.70716 155.17 9.9433 155.81 10.2779C156.449 10.5927 156.986 11.0159 157.419 11.5472C157.645 11.8424 157.78 12.1967 157.821 12.61C157.862 13.0233 157.666 13.3972 157.233 13.7318C156.924 13.9679 156.563 14.0762 156.15 14.0565C155.738 14.0171 155.397 13.8794 155.129 13.6432C154.778 13.2102 154.304 12.8658 153.705 12.61C153.127 12.3542 152.457 12.2262 151.694 12.2262C151.384 12.2262 151.044 12.2656 150.672 12.3443C150.322 12.4033 150.012 12.551 149.744 12.7871C149.476 13.0036 149.342 13.3578 149.342 13.8498C149.342 14.3025 149.496 14.6666 149.806 14.9421C150.115 15.1979 150.528 15.4144 151.044 15.5916C151.58 15.749 152.148 15.9065 152.746 16.0639C153.365 16.2213 153.994 16.4083 154.634 16.6247C155.274 16.8413 155.861 17.1266 156.398 17.4808C156.934 17.8351 157.367 18.2976 157.697 18.8683C158.028 19.4193 158.192 20.1278 158.192 20.9938C158.192 21.9975 157.883 22.8536 157.264 23.562C156.645 24.2706 155.871 24.8117 154.943 25.1857C154.015 25.5401 153.065 25.7168 152.096 25.7168C150.879 25.7168 149.662 25.5204 148.444 25.1267C147.227 24.7132 146.216 23.995 145.411 22.9716Z" fill="#81818B"/>
</g>
<defs>
<clipPath id="clip0_1_102">
<rect width="158" height="29" fill="white"/>
</clipPath>
</defs>
</svg>
