<svg width="167" height="39" viewBox="0 0 167 39" fill="none" xmlns="http://www.w3.org/2000/svg">
<g clip-path="url(#clip0_1_130)">
<path d="M49.2482 10.2461C50.8358 10.2461 52.2097 10.5162 53.3705 11.0565C54.548 11.5967 55.4521 12.3636 56.0837 13.357C56.7152 14.3504 57.0313 15.5268 57.0313 16.8862C57.0313 18.2282 56.7152 19.4045 56.0837 20.4154C55.4521 21.4088 54.548 22.1757 53.3705 22.7161C52.2097 23.2387 50.8358 23.5002 49.2482 23.5002H45.6388V28.5458H41.4918V10.2461H49.2482ZM49.0182 20.0494C50.2635 20.0494 51.2111 19.7793 51.8595 19.239C52.5084 18.6813 52.8323 17.897 52.8323 16.8862C52.8323 15.8579 52.5084 15.0736 51.8595 14.5334C51.2111 13.9757 50.2635 13.6969 49.0182 13.6969H45.6388V20.0494H49.0182Z" fill="#81818B"/>
<path d="M62.2451 16.3373C62.7223 15.6576 63.3628 15.1434 64.1645 14.7949C64.984 14.4463 65.9222 14.2721 66.9806 14.2721V18.0366C66.5369 18.0017 66.2382 17.9843 66.0844 17.9843C64.9409 17.9843 64.0453 18.3154 63.3969 18.9777C62.748 19.6225 62.4236 20.5985 62.4236 21.9055V28.5459H58.4304V14.4812H62.2451V16.3373Z" fill="#81818B"/>
<path d="M74.5038 28.7547C73.0533 28.7547 71.7476 28.45 70.5873 27.8398C69.4439 27.2126 68.5477 26.3496 67.8993 25.2516C67.251 24.1537 66.9265 22.9076 66.9265 21.5135C66.9265 20.1192 67.251 18.8731 67.8993 17.7751C68.5477 16.6771 69.4439 15.8232 70.5873 15.2132C71.7476 14.5858 73.0533 14.2721 74.5038 14.2721C75.9544 14.2721 77.2517 14.5858 78.3951 15.2132C79.5386 15.8232 80.4348 16.6771 81.0837 17.7751C81.7315 18.8731 82.056 20.1192 82.056 21.5135C82.056 22.9076 81.7315 24.1537 81.0837 25.2516C80.4348 26.3496 79.5386 27.2126 78.3951 27.8398C77.2517 28.45 75.9544 28.7547 74.5038 28.7547ZM74.5038 25.4085C75.5281 25.4085 76.3644 25.0603 77.0128 24.3629C77.6785 23.6485 78.0108 22.6988 78.0108 21.5135C78.0108 20.3284 77.6785 19.3872 77.0128 18.6901C76.3644 17.9755 75.5281 17.6182 74.5038 17.6182C73.4801 17.6182 72.6354 17.9755 71.9697 18.6901C71.304 19.3872 70.9711 20.3284 70.9711 21.5135C70.9711 22.6988 71.304 23.6485 71.9697 24.3629C72.6354 25.0603 73.4801 25.4085 74.5038 25.4085Z" fill="#81818B"/>
<path d="M100.163 10.2461V28.5458H96.7581L87.8231 17.4352V28.5458H83.7271V10.2461H87.1574L96.0666 21.3565V10.2461H100.163Z" fill="#81818B"/>
<path d="M108.396 14.2721C110.529 14.2721 112.168 14.7949 113.311 15.8406C114.455 16.8689 115.026 18.4287 115.026 20.5201V28.5459H111.289V26.7941C110.538 28.1013 109.139 28.7547 107.091 28.7547C106.032 28.7547 105.11 28.572 104.325 28.2059C103.558 27.8398 102.969 27.3346 102.559 26.6896C102.15 26.0449 101.945 25.3127 101.945 24.4936C101.945 23.1865 102.423 22.1583 103.378 21.4089C104.351 20.6595 105.845 20.2848 107.859 20.2848H111.033C111.033 19.3959 110.769 18.7163 110.239 18.2457C109.71 17.7577 108.917 17.5137 107.859 17.5137C107.125 17.5137 106.399 17.6357 105.683 17.8797C104.983 18.1063 104.385 18.42 103.89 18.8208L102.457 15.9713C103.208 15.431 104.103 15.0128 105.144 14.7165C106.203 14.4202 107.287 14.2721 108.396 14.2721ZM108.089 26.01C108.772 26.01 109.377 25.8531 109.906 25.5393C110.435 25.208 110.811 24.729 111.033 24.1014V22.6639H108.294C106.655 22.6639 105.836 23.2126 105.836 24.3106C105.836 24.8336 106.032 25.2516 106.425 25.5655C106.834 25.8618 107.389 26.01 108.089 26.01Z" fill="#81818B"/>
<path d="M126.244 27.8659C125.852 28.1623 125.365 28.3889 124.785 28.5458C124.222 28.6849 123.624 28.7546 122.993 28.7546C121.355 28.7546 120.083 28.3279 119.179 27.4741C118.291 26.6198 117.847 25.3649 117.847 23.7095V17.9319H115.723V14.7949H117.847V11.3702H121.841V14.7949H125.271V17.9319H121.841V23.6572C121.841 24.2495 121.986 24.7115 122.276 25.0428C122.583 25.3562 123.01 25.5131 123.556 25.5131C124.188 25.5131 124.725 25.3388 125.169 24.9905L126.244 27.8659Z" fill="#81818B"/>
<path d="M141.082 14.4813V28.546H137.293V26.8727C136.764 27.4825 136.132 27.9532 135.398 28.2845C134.664 28.5983 133.871 28.7548 133.017 28.7548C131.208 28.7548 129.775 28.2235 128.716 27.1604C127.658 26.0973 127.129 24.5199 127.129 22.4286V14.4813H131.123V21.8271C131.123 24.0928 132.053 25.2256 133.913 25.2256C134.869 25.2256 135.637 24.9122 136.218 24.2845C136.797 23.6399 137.088 22.6902 137.088 21.4351V14.4813H141.082Z" fill="#81818B"/>
<path d="M147.316 16.3373C147.793 15.6576 148.434 15.1434 149.236 14.7949C150.055 14.4463 150.994 14.2721 152.052 14.2721V18.0366C151.608 18.0017 151.309 17.9843 151.156 17.9843C150.012 17.9843 149.116 18.3154 148.468 18.9777C147.819 19.6225 147.495 20.5985 147.495 21.9055V28.5459H143.501V14.4812H147.316V16.3373Z" fill="#81818B"/>
<path d="M166.513 21.566C166.513 21.6178 166.488 21.9839 166.436 22.6639H156.017C156.204 23.5352 156.648 24.2234 157.348 24.729C158.048 25.2342 158.918 25.487 159.959 25.487C160.676 25.487 161.307 25.3824 161.853 25.1732C162.417 24.947 162.937 24.5983 163.415 24.1275L165.54 26.4803C164.243 27.9967 162.348 28.7547 159.856 28.7547C158.304 28.7547 156.93 28.45 155.735 27.8398C154.54 27.2126 153.619 26.3496 152.97 25.2516C152.321 24.1537 151.997 22.9076 151.997 21.5135C151.997 20.1366 152.313 18.8992 152.945 17.8013C153.593 16.6858 154.472 15.8232 155.581 15.2132C156.708 14.5858 157.962 14.2721 159.345 14.2721C160.693 14.2721 161.913 14.5684 163.006 15.1609C164.098 15.7534 164.951 16.6074 165.566 17.7229C166.197 18.8208 166.513 20.1018 166.513 21.566ZM159.37 17.3568C158.466 17.3568 157.706 17.6182 157.092 18.1411C156.477 18.664 156.102 19.3785 155.965 20.2848H162.75C162.613 19.3959 162.237 18.6901 161.623 18.1673C161.009 17.627 160.258 17.3568 159.37 17.3568Z" fill="#81818B"/>
<path fill-rule="evenodd" clip-rule="evenodd" d="M18.748 0.0550666C18.1395 -0.304407 17.3893 -0.304407 16.7808 0.0550666C12.4588 2.60812 9.54371 7.38495 9.54371 12.8595C9.54371 13.6397 9.60299 14.4058 9.71702 15.1533C6.74179 14.1215 3.52028 14.4969 0.888984 16.0452C0.279932 16.4036 -0.0952337 17.0671 -0.0946037 17.7849C-0.0915062 21.5721 1.83503 25.263 5.28533 27.2971C6.97804 28.2953 8.82557 28.7695 10.6479 28.7704C10.3707 29.5728 10.2198 30.4358 10.2198 31.335C10.2198 35.5899 13.5976 39.0387 17.7641 39.0387C21.9309 39.0387 25.3084 35.5899 25.3084 31.335C25.3084 30.4336 25.1568 29.5689 24.8785 28.7652C26.5923 28.7098 28.3184 28.2347 29.9079 27.2971C33.3586 25.263 35.2848 21.5721 35.2874 17.7851C35.2885 17.0673 34.9131 16.4038 34.3041 16.0454C31.7767 14.5581 28.7042 14.153 25.8291 15.0381C25.932 14.3271 25.9849 13.5997 25.9849 12.8595C25.9849 7.38495 23.0701 2.60812 18.748 0.0550666ZM13.4724 12.8595C13.4724 9.30448 15.1581 6.14963 17.7644 4.18588C20.3707 6.14963 22.0564 9.30448 22.0564 12.8595C22.0564 16.4144 20.3707 19.5693 17.7644 21.533C15.1581 19.5693 13.4724 16.4144 13.4724 12.8595ZM25.5115 19.5215C27.3256 18.4519 29.4217 18.3276 31.2528 19.0043C30.9115 20.962 29.7576 22.7533 27.9436 23.8229C26.1296 24.8925 24.0334 25.0167 22.2024 24.3403C22.5438 22.3823 23.6975 20.591 25.5115 19.5215ZM3.94049 19.0042C5.77148 18.3274 7.8676 18.4518 9.68163 19.5214C11.4958 20.5908 12.6493 22.3823 12.9909 24.3398C11.1598 25.0167 9.06376 24.8925 7.24967 23.8229C5.43564 22.7533 4.28206 20.9618 3.94049 19.0042ZM14.1485 31.335C14.1485 29.296 15.7673 27.6428 17.7641 27.6428C19.7609 27.6428 21.3798 29.296 21.3798 31.335C21.3798 33.3739 19.7609 35.0272 17.7641 35.0272C15.7673 35.0272 14.1485 33.3739 14.1485 31.335Z" fill="#81818B"/>
</g>
<defs>
<clipPath id="clip0_1_130">
<rect width="167" height="39" fill="white"/>
</clipPath>
</defs>
</svg>
