<svg width="145" height="32" viewBox="0 0 145 32" fill="none" xmlns="http://www.w3.org/2000/svg">
<g clip-path="url(#clip0_1_142)">
<path d="M46.5751 27.8316C44.4765 27.8316 42.6215 27.3567 41.01 26.4079C39.3981 25.4371 38.1522 24.0673 37.2714 22.2989C36.3911 20.5302 35.9507 18.4487 35.9507 16.0545C35.9507 13.6603 36.3911 11.5789 37.2714 9.81019C38.1522 8.01988 39.3981 6.65026 41.01 5.70117C42.6215 4.73055 44.4765 4.24524 46.5751 4.24524C47.9996 4.24524 49.2549 4.41781 50.3418 4.76289C51.4474 5.08645 52.4591 5.6041 53.3773 6.31589V11.0072C52.5531 10.2308 51.6068 9.66996 50.5386 9.32482C49.4891 8.95816 48.2899 8.77483 46.9407 8.77483C45.6855 8.77483 44.5513 9.07681 43.5397 9.68072C42.5467 10.2631 41.7594 11.1043 41.1788 12.2043C40.5977 13.3044 40.3074 14.5877 40.3074 16.0545C40.3074 17.5428 40.5696 18.8477 41.0942 19.9694C41.6379 21.0694 42.3966 21.9214 43.3709 22.5253C44.3452 23.1293 45.47 23.4313 46.7439 23.4313C47.9056 23.4313 48.9173 23.194 49.7794 22.7195V18.3516H46.6032V14.728H53.9112V25.6314C52.0561 27.098 49.6111 27.8316 46.5751 27.8316Z" fill="#81818B"/>
<path d="M54.8981 11.8161H59.0018V14.0486C59.5455 13.2936 60.3042 12.722 61.2785 12.3338C62.2528 11.924 63.3589 11.7191 64.5954 11.7191V15.4398C63.3023 15.4398 62.1593 15.6663 61.1663 16.1192C60.1916 16.5722 59.517 17.2624 59.1425 18.1899V27.3463H54.8981V11.8161Z" fill="#81818B"/>
<path d="M72.7519 27.8316C70.1657 27.8316 68.1326 27.1195 66.6524 25.6958C65.1719 24.2511 64.4318 22.2342 64.4318 19.6458C64.4318 17.079 65.0877 15.0515 66.3995 13.5633C67.73 12.0749 69.6225 11.3308 72.0773 11.3308C73.6888 11.3308 75.0562 11.6759 76.181 12.3661C77.3049 13.0563 78.1581 14.0162 78.7387 15.2456C79.3198 16.4535 79.6101 17.8232 79.6101 19.3546V21.3282H68.4794C68.7791 23.3127 70.3906 24.305 73.3139 24.305C74.1759 24.305 75.066 24.2187 75.9842 24.0459C76.9024 23.8734 77.699 23.6361 78.3736 23.3342V26.764C77.7177 27.0871 76.8743 27.3462 75.8435 27.5405C74.8131 27.7342 73.7823 27.8316 72.7519 27.8316ZM75.5906 18.1575C75.5345 17.1222 75.1969 16.3241 74.5789 15.7633C73.9604 15.181 73.1077 14.8897 72.0208 14.8897C70.953 14.8897 70.1096 15.181 69.4911 15.7633C68.8731 16.3457 68.5355 17.1438 68.4794 18.1575H75.5906Z" fill="#81818B"/>
<path d="M88.3098 27.8316C85.724 27.8316 83.6909 27.1195 82.2103 25.6958C80.7302 24.2511 79.9897 22.2342 79.9897 19.6458C79.9897 17.079 80.6456 15.0515 81.9574 13.5633C83.2879 12.0749 85.1803 11.3308 87.6352 11.3308C89.2467 11.3308 90.6146 11.6759 91.7394 12.3661C92.8632 13.0563 93.716 14.0162 94.2966 15.2456C94.8777 16.4535 95.168 17.8232 95.168 19.3546V21.3282H84.0373C84.337 23.3127 85.9489 24.305 88.8722 24.305C89.7343 24.305 90.6244 24.2187 91.5421 24.0459C92.4603 23.8734 93.2569 23.6361 93.9315 23.3342V26.764C93.2756 27.0871 92.4327 27.3462 91.4018 27.5405C90.371 27.7342 89.3406 27.8316 88.3098 27.8316ZM91.1489 18.1575C91.0923 17.1222 90.7553 16.3241 90.1372 15.7633C89.5183 15.181 88.666 14.8897 87.5791 14.8897C86.5108 14.8897 85.6679 15.181 85.0494 15.7633C84.4309 16.3457 84.0939 17.1438 84.0373 18.1575H91.1489Z" fill="#81818B"/>
<path d="M96.1105 11.8161H100.214V13.725C100.833 12.927 101.563 12.3338 102.406 11.9455C103.268 11.5357 104.168 11.3308 105.105 11.3308C106.942 11.3308 108.309 11.9024 109.208 13.0456C110.127 14.1672 110.586 15.6878 110.586 17.6075V27.3462H106.341V18.1575C106.341 16.1516 105.536 15.1486 103.924 15.1486C103.212 15.1486 102.547 15.3535 101.929 15.7633C101.31 16.1516 100.785 16.734 100.354 17.5104V27.3462H96.1105V11.8161Z" fill="#81818B"/>
<path d="M114.33 9.42188C113.675 9.42188 113.122 9.17387 112.673 8.67774C112.222 8.18167 111.998 7.55613 111.998 6.80118C111.998 6.06786 112.222 5.45314 112.673 4.95702C113.122 4.43937 113.675 4.18054 114.33 4.18054C114.986 4.18054 115.539 4.43937 115.989 4.95702C116.439 5.45314 116.664 6.06786 116.664 6.80118C116.664 7.55613 116.439 8.18167 115.989 8.67774C115.539 9.17387 114.986 9.42188 114.33 9.42188ZM112.194 11.8161H116.467V27.3462H112.194V11.8161Z" fill="#81818B"/>
<path d="M123.706 27.8316C122.694 27.8316 121.607 27.7018 120.445 27.4431C119.302 27.2059 118.403 26.8608 117.747 26.4079V22.5901C118.496 23.1077 119.396 23.5283 120.445 23.8518C121.495 24.1752 122.469 24.337 123.369 24.337C124.137 24.337 124.699 24.2616 125.055 24.1108C125.411 23.9597 125.589 23.6793 125.589 23.2695C125.589 22.946 125.486 22.6871 125.28 22.493C125.074 22.2773 124.755 22.0939 124.324 21.943C123.912 21.7704 123.218 21.5224 122.244 21.1988C121.101 20.8106 120.201 20.4223 119.546 20.0341C118.909 19.6242 118.421 19.1174 118.084 18.5134C117.766 17.9095 117.606 17.1329 117.606 16.1839C117.606 14.5662 118.159 13.3583 119.265 12.5603C120.389 11.7406 121.907 11.3308 123.818 11.3308C124.755 11.3308 125.72 11.4494 126.713 11.6867C127.725 11.9024 128.503 12.1936 129.046 12.5603V16.281C128.503 15.8712 127.791 15.5368 126.91 15.278C126.048 15.0192 125.205 14.8897 124.38 14.8897C123.612 14.8897 123.012 14.976 122.581 15.1486C122.169 15.3212 121.963 15.6447 121.963 16.1192C121.963 16.529 122.16 16.8418 122.553 17.0575C122.965 17.2732 123.724 17.5428 124.83 17.8664L125.392 18.0281C126.573 18.3948 127.49 18.8046 128.146 19.2576C128.802 19.689 129.261 20.2174 129.524 20.8429C129.805 21.4469 129.946 22.2126 129.946 23.1401C129.946 24.5637 129.411 25.7068 128.344 26.5697C127.275 27.4107 125.729 27.8316 123.706 27.8316Z" fill="#81818B"/>
<path d="M130.927 3.4364H135.171V13.5956C135.808 12.8407 136.53 12.2799 137.335 11.9132C138.141 11.5249 139.003 11.3308 139.921 11.3308C141.758 11.3308 143.126 11.9024 144.025 13.0456C144.943 14.1672 145.402 15.6878 145.402 17.6076V27.3463H141.158V18.1576C141.158 16.1516 140.352 15.1486 138.741 15.1486C138.028 15.1486 137.364 15.3535 136.745 15.7633C136.127 16.1516 135.602 16.734 135.171 17.5104V27.3463H130.927V3.4364Z" fill="#81818B"/>
<path fill-rule="evenodd" clip-rule="evenodd" d="M21.4554 8.01421C21.4554 12.124 18.5612 15.4556 14.9908 15.4556C11.4204 15.4556 8.52597 12.124 8.52597 8.01421C8.52597 3.9044 11.4204 0.572754 14.9908 0.572754C18.5612 0.572754 21.4554 3.9044 21.4554 8.01421ZM-0.0468975 14.9148C6.99636 14.3683 13.1348 20.4383 13.7066 28.5628C13.7658 29.4045 13.763 30.2356 13.7025 31.0504C6.6592 31.5969 0.520787 25.5268 -0.0510117 17.4024C-0.110197 16.5606 -0.107392 15.7293 -0.0468975 14.9148ZM18.2596 30.7659C25.3177 30.1075 30.5908 23.042 30.1163 14.9348C29.4085 14.8651 28.6867 14.8618 27.9551 14.93C20.8969 15.5882 15.6237 22.6539 16.0984 30.7611C16.8061 30.831 17.5282 30.8341 18.2596 30.7659Z" fill="#81818B"/>
</g>
<defs>
<clipPath id="clip0_1_142">
<rect width="145" height="32" fill="white"/>
</clipPath>
</defs>
</svg>
