<?xml version="1.0" standalone="no"?>
<!DOCTYPE svg PUBLIC "-//W3C//DTD SVG 20010904//EN"
 "http://www.w3.org/TR/2001/REC-SVG-20010904/DTD/svg10.dtd">
<svg version="1.0" xmlns="http://www.w3.org/2000/svg"
 width="128.000000pt" height="128.000000pt" viewBox="0 0 128.000000 128.000000"
 preserveAspectRatio="xMidYMid meet">

<g transform="translate(0.000000,128.000000) scale(0.100000,-0.100000)"
fill="#000000" stroke="none">
<path d="M590 1260 c-26 -26 -34 -63 -20 -89 8 -16 8 -26 -2 -39 -7 -10 -55
-73 -106 -139 l-93 -122 -165 -3 c-160 -3 -166 -4 -185 -27 -18 -22 -19 -44
-19 -408 l0 -384 25 -24 24 -25 591 0 591 0 24 25 c25 24 25 27 25 194 0 93
-4 172 -8 175 -25 16 -32 -16 -34 -179 l-3 -170 -595 0 -595 0 -3 384 c-2 301
1 386 10 393 17 10 278 10 278 0 0 -17 -35 -40 -65 -44 -20 -2 -34 -12 -45
-30 -22 -40 2 -82 49 -86 47 -5 75 22 67 66 -4 27 1 41 22 68 l27 34 113 0
c103 0 113 2 110 18 -3 14 -18 18 -96 22 l-93 5 97 128 c82 107 101 127 124
127 23 0 42 -20 124 -127 l97 -128 -93 -5 c-78 -4 -93 -8 -96 -22 -3 -16 7
-18 110 -18 l113 0 27 -34 c21 -27 26 -41 22 -68 -8 -44 20 -71 67 -66 47 4
71 46 49 86 -11 18 -25 28 -45 30 -30 4 -65 27 -65 44 0 10 261 10 277 0 9 -6
13 -59 15 -187 3 -162 5 -180 21 -183 16 -3 17 11 17 181 0 247 14 231 -204
235 l-165 3 -93 122 c-51 66 -99 129 -106 139 -10 13 -10 23 -2 39 24 45 -17
109 -70 109 -17 0 -39 -9 -50 -20z m78 -32 c32 -32 -8 -80 -48 -58 -34 18 -19
70 20 70 9 0 21 -5 28 -12z m-368 -508 c0 -23 -13 -32 -34 -24 -19 7 -21 25
-5 41 16 16 39 5 39 -17z m730 -5 c0 -15 -27 -28 -41 -19 -13 8 -11 42 4 47
15 5 37 -11 37 -28z"/>
<path d="M125 578 c-3 -7 5 -51 18 -98 26 -100 43 -109 66 -36 l15 48 16 -48
c10 -28 23 -49 31 -49 18 0 65 173 51 187 -16 16 -29 1 -42 -49 l-12 -48 -14
48 c-9 28 -20 47 -29 47 -9 0 -20 -19 -28 -47 l-14 -48 -14 49 c-14 49 -35 70
-44 44z"/>
<path d="M395 581 c-37 -16 -60 -51 -60 -93 0 -33 6 -45 34 -70 29 -26 39 -30
75 -25 52 7 86 44 86 93 0 46 -14 70 -50 89 -32 16 -55 18 -85 6z m77 -48 c22
-20 24 -66 2 -87 -23 -24 -70 -20 -88 6 -21 30 -20 54 4 78 24 24 57 26 82 3z"/>
<path d="M554 577 c-3 -8 -4 -52 -2 -98 2 -67 6 -84 18 -84 9 0 17 12 20 32
l5 33 24 -35 c13 -19 30 -35 37 -35 21 0 17 34 -6 55 l-20 18 20 22 c25 27 26
67 2 88 -22 20 -90 23 -98 4z m81 -47 c0 -8 -10 -16 -22 -18 -18 -3 -23 2 -23
18 0 16 5 21 23 18 12 -2 22 -10 22 -18z"/>
<path d="M695 577 c-3 -7 -5 -52 -3 -98 2 -67 6 -84 18 -84 9 0 16 11 18 29
l4 28 34 -33 c26 -26 37 -30 46 -21 9 9 3 21 -27 52 l-39 40 39 40 c30 31 36
43 27 52 -9 9 -20 5 -46 -21 l-34 -33 -4 28 c-3 30 -25 44 -33 21z"/>
<path d="M936 575 c-8 -21 -8 -148 0 -169 3 -9 13 -16 20 -16 12 0 14 18 12
97 -2 60 -7 98 -14 100 -6 2 -14 -3 -18 -12z"/>
<path d="M1016 575 c-8 -21 -8 -148 0 -169 3 -9 12 -16 20 -16 9 0 14 17 16
57 l3 57 38 -58 c21 -31 43 -56 50 -53 8 2 12 34 12 98 0 77 -3 94 -15 94 -11
0 -16 -14 -18 -53 l-3 -54 -37 53 c-41 58 -56 68 -66 44z"/>
<path d="M124 297 c-3 -8 -4 -45 -2 -83 2 -56 6 -69 21 -72 13 -3 17 3 17 25
0 22 8 31 33 43 39 18 50 66 21 87 -23 17 -83 17 -90 0z m69 -42 c1 -5 -6 -11
-15 -13 -11 -2 -18 3 -18 13 0 17 30 18 33 0z"/>
<path d="M244 297 c-3 -8 -4 -45 -2 -83 2 -56 6 -69 21 -72 13 -3 17 3 17 25
l1 28 20 -27 c22 -29 49 -37 49 -15 0 7 -6 22 -14 32 -12 17 -11 23 7 46 19
27 19 29 3 53 -13 21 -25 26 -57 26 -24 0 -42 -5 -45 -13z m74 -39 c-7 -19
-38 -22 -38 -4 0 10 9 16 21 16 12 0 19 -5 17 -12z"/>
<path d="M389 281 c-31 -31 -36 -59 -17 -94 17 -33 39 -46 79 -47 73 0 108 92
54 145 -34 35 -78 33 -116 -4z m95 -27 c21 -21 20 -40 -4 -64 -24 -24 -29 -24
-58 -4 -24 17 -29 53 -10 72 17 17 54 15 72 -4z"/>
<path d="M560 290 c-25 -25 -27 -95 -4 -128 32 -46 113 -11 102 45 -4 23 -58
32 -58 9 0 -8 5 -18 10 -21 15 -9 2 -25 -15 -18 -21 7 -20 82 0 90 9 3 21 -2
29 -12 11 -15 13 -15 25 -2 10 13 9 19 -8 36 -26 26 -55 27 -81 1z"/>
<path d="M680 225 c0 -69 3 -85 15 -85 10 0 15 10 15 28 l1 27 25 -28 c15 -18
30 -27 40 -23 15 6 15 9 0 31 -15 23 -15 28 -1 47 32 46 4 88 -58 88 l-37 0 0
-85z m68 33 c-3 -7 -11 -13 -18 -13 -7 0 -15 6 -17 13 -3 7 4 12 17 12 13 0
20 -5 18 -12z"/>
<path d="M805 287 c-4 -13 -5 -50 -3 -82 l3 -60 43 0 c45 0 58 16 21 25 -31 8
-35 28 -7 32 33 5 37 38 4 38 -32 0 -35 27 -4 32 13 2 24 11 26 21 3 14 -4 17
-37 17 -34 0 -42 -4 -46 -23z"/>
<path d="M930 290 c-11 -11 -20 -26 -20 -33 0 -17 28 -43 58 -51 34 -11 26
-26 -14 -26 -28 0 -35 -3 -32 -17 2 -13 14 -19 40 -21 30 -3 40 1 53 22 21 31
6 63 -36 78 -41 14 -37 32 6 24 27 -5 35 -4 35 8 0 17 -29 36 -54 36 -9 0 -25
-9 -36 -20z"/>
<path d="M1072 303 c-7 -2 -17 -13 -22 -24 -14 -26 1 -53 40 -69 40 -17 38
-30 -5 -30 -23 0 -35 -5 -35 -14 0 -30 68 -36 93 -8 30 33 13 70 -40 86 -37
12 -27 29 11 22 42 -8 54 7 24 28 -23 16 -42 19 -66 9z"/>
</g>
</svg>
